<svg width="54" height="51" viewBox="0 0 54 51" fill="none" xmlns="http://www.w3.org/2000/svg">
<path d="M20.2441 31.7812C28.9341 31.7813 40.4851 32.7565 40.4854 41.1982C40.4854 50.6663 25.2493 50.667 20.2441 50.667C19.1402 50.667 18.2441 49.776 18.2441 48.6729C18.2443 47.5725 19.1403 46.6797 20.2441 46.6797C27.6543 46.6797 36.4854 45.7303 36.4854 41.1982C36.485 37.5968 31.0217 35.7686 20.2441 35.7686C12.834 35.7686 4 36.7173 4 41.252C4.00005 42.2673 4.29903 43.5773 6.62402 44.7148C7.56792 45.1773 8.75992 45.5627 10.165 45.8604C11.2448 46.0891 11.9351 47.1475 11.7031 48.2266C11.4738 49.3029 10.4128 49.9971 9.33301 49.7607C7.60779 49.3939 6.1032 48.9012 4.86328 48.2979C0.845465 46.3309 6.462e-05 43.3783 0 41.252C0 31.7812 15.2365 31.7812 20.2441 31.7812ZM41.5645 29.9004C43.1082 30.0067 44.6574 30.2296 46.1719 30.5645C49.5448 31.2263 51.7661 32.5874 52.7314 34.6074C53.5341 36.29 53.5341 38.2149 52.7314 39.8975C51.7795 41.899 49.5607 43.2677 46.1396 43.9668C46.0037 43.9934 45.8703 44.0068 45.7344 44.0068C44.8066 44.0068 43.9724 43.3584 43.7803 42.415C43.559 41.336 44.2545 40.2833 45.3369 40.0625C47.3712 39.6479 48.75 38.9645 49.1182 38.1885C49.4008 37.5931 49.4011 36.9124 49.1211 36.3223C48.7451 35.5408 47.3718 34.8629 45.3506 34.4668C43.9853 34.1638 42.6356 33.9703 41.2891 33.8799C40.1881 33.8026 39.3564 32.8534 39.4336 31.7559C39.5083 30.6528 40.4819 29.8446 41.5645 29.9004ZM20.2441 0C27.793 0 33.9346 6.12436 33.9346 13.6494C33.9345 21.1744 27.7929 27.2988 20.2441 27.2988C17.1512 27.2988 14.237 26.3071 11.8213 24.4307C10.9494 23.7529 10.7919 22.501 11.4717 21.6318C12.1516 20.7653 13.4054 20.608 14.2773 21.2832C15.9864 22.6094 18.0498 23.3114 20.2441 23.3115C25.5877 23.3115 29.9345 18.9762 29.9346 13.6494C29.9346 8.3226 25.5878 3.9873 20.2441 3.9873C14.898 3.9875 10.5518 8.32272 10.5518 13.6494C10.5517 14.7498 9.65564 15.6426 8.55176 15.6426C7.44796 15.6425 6.55182 14.7497 6.55176 13.6494C6.55176 6.12448 12.6928 0.000194201 20.2441 0ZM37.3848 2.84473C43.3363 2.84477 48.1758 7.67237 48.1758 13.6025C48.1756 19.5352 43.3362 24.3593 37.3848 24.3594C36.2809 24.3594 35.3849 23.4666 35.3848 22.3662C35.3848 21.2658 36.2808 20.3721 37.3848 20.3721C41.131 20.372 44.1756 17.3343 44.1758 13.6025C44.1758 9.87061 41.1311 6.83208 37.3848 6.83203C36.281 6.83203 35.385 5.93916 35.3848 4.83887C35.3848 3.73842 36.2808 2.84473 37.3848 2.84473Z" fill="#FFB5A0"/>
</svg>
