<svg width="17" height="17" viewBox="0 0 17 17" fill="none" xmlns="http://www.w3.org/2000/svg">
<path d="M3.05077 7.49802C3.29301 7.33391 3.62333 7.39337 3.78905 7.63474C5.62721 10.3029 8.98475 13.3065 11.1211 14.1943C11.9852 14.5957 12.6286 14.6206 13.1074 14.2773C13.4806 14.0515 14.5412 12.9982 14.5224 12.4502C14.5161 12.3858 14.4417 12.2648 14.3164 12.1367C13.9084 11.719 12.5391 10.6828 12.2529 10.5752C12.027 10.5272 11.7919 10.6648 11.4336 10.8906L11.2519 11.0029C11.0005 11.1535 10.674 11.0732 10.5224 10.8213C10.3719 10.5707 10.4527 10.2442 10.7041 10.0927L10.8672 9.99216C11.2638 9.74229 11.8116 9.4011 12.5 9.54392C13.0425 9.65647 14.7494 11.0589 15.0762 11.3925C15.3835 11.7068 15.5529 12.042 15.582 12.3867C15.628 13.6912 13.8817 15.0547 13.6806 15.1699C13.2996 15.4446 12.8525 15.583 12.3496 15.583C11.8495 15.583 11.2938 15.4463 10.6924 15.166C8.37961 14.2059 4.8818 11.0929 2.91405 8.2363C2.74758 7.99488 2.80922 7.66439 3.05077 7.49802ZM4.58983 1.41892C4.95521 1.44943 5.28979 1.62 5.6035 1.92575C5.93842 2.2529 7.34149 3.95996 7.45409 4.49997C7.57507 5.08107 7.31355 5.53491 7.12303 5.86618C6.93556 6.19215 6.87038 6.33174 6.93456 6.50778C7.40844 7.66673 8.14139 8.61456 9.10545 9.3027C9.34397 9.47408 9.39818 9.80541 9.22752 10.0439C9.12414 10.1882 8.96149 10.2665 8.79588 10.2666C8.68833 10.2666 8.58072 10.2334 8.48729 10.167C7.35818 9.35917 6.50223 8.25671 5.94334 6.88962C5.69769 6.21379 5.98895 5.7071 6.20213 5.33688C6.36211 5.05954 6.45042 4.89363 6.41307 4.71677C6.3139 4.46119 5.27826 3.09358 4.86034 2.68649C4.73151 2.55992 4.61039 2.48556 4.52049 2.47849C4.01321 2.46682 2.97633 3.46932 2.7412 3.85935C2.37668 4.36051 2.40237 5.00236 2.79393 5.86227C2.91506 6.12917 2.7973 6.44362 2.53026 6.5654C2.2625 6.68646 1.94897 6.56934 1.82713 6.30173C1.26979 5.07919 1.28041 4.05839 1.85838 3.27048C2.0742 2.90964 3.4277 1.34318 4.58983 1.41892Z" fill="black"/>
</svg>
