<svg width="38" height="38" viewBox="0 0 38 38" fill="none" xmlns="http://www.w3.org/2000/svg">
<path d="M4.72223 28.3334L23.6111 14.1667" stroke="#FFB5A0" stroke-width="2" stroke-linecap="round"/>
<path d="M23.6111 23.6111L4.72223 9.44446" stroke="#FFB5A0" stroke-width="2" stroke-linecap="round"/>
<path fill-rule="evenodd" clip-rule="evenodd" d="M28.3333 15.7408C30.9413 15.7408 33.0555 13.6266 33.0555 11.0185C33.0555 8.41054 30.9413 6.29633 28.3333 6.29633C25.7253 6.29633 23.6111 8.41054 23.6111 11.0185C23.6111 13.6266 25.7253 15.7408 28.3333 15.7408Z" stroke="#FFB5A0" stroke-width="2"/>
<path fill-rule="evenodd" clip-rule="evenodd" d="M28.3333 31.4815C30.9413 31.4815 33.0555 29.3673 33.0555 26.7593C33.0555 24.1513 30.9413 22.037 28.3333 22.037C25.7253 22.037 23.6111 24.1513 23.6111 26.7593C23.6111 29.3673 25.7253 31.4815 28.3333 31.4815Z" stroke="#FFB5A0" stroke-width="2"/>
</svg>
