<svg width="36" height="36" viewBox="0 0 36 36" fill="none" xmlns="http://www.w3.org/2000/svg">
<path d="M16.875 3.375V5.73047C13.6846 6.2666 11.25 9.05713 11.25 12.375C11.25 14.3745 12.186 15.917 13.4297 16.9102C14.6733 17.9033 16.1719 18.457 17.5781 19.0195C18.9844 19.582 20.2983 20.1533 21.1641 20.8477C22.0298 21.542 22.5 22.2451 22.5 23.625C22.5 26.0508 20.4829 28.125 18 28.125C15.5039 28.125 13.5 26.1211 13.5 23.625V22.5H11.25V23.625C11.25 26.9604 13.6846 29.7334 16.875 30.2695V32.625H19.125V30.2695C22.3242 29.729 24.75 26.9165 24.75 23.625C24.75 21.6211 23.814 20.0874 22.5703 19.0898C21.3267 18.0923 19.8281 17.5078 18.4219 16.9453C17.0156 16.3828 15.7017 15.8423 14.8359 15.1523C13.9702 14.4624 13.5 13.7461 13.5 12.375C13.5 9.90967 15.5083 7.875 18 7.875C20.4961 7.875 22.5 9.87891 22.5 12.375V13.5H24.75V12.375C24.75 9.03955 22.3154 6.2666 19.125 5.73047V3.375H16.875Z" fill="#FFB5A0"/>
</svg>
