<svg width="32" height="32" viewBox="0 0 32 32" fill="none" xmlns="http://www.w3.org/2000/svg">
<circle cx="16" cy="16" r="16" fill="url(#paint0_linear_2051_257)"/>
<path d="M14.8868 18.7537H10.6863" stroke="#F6EDE5" stroke-width="1.5" stroke-linecap="round" stroke-linejoin="round"/>
<path d="M16.7603 11.8875H20.9608" stroke="#F6EDE5" stroke-width="1.5" stroke-linecap="round" stroke-linejoin="round"/>
<path fill-rule="evenodd" clip-rule="evenodd" d="M13.8175 11.8494C13.8175 10.9317 13.1121 10.1875 12.2421 10.1875C11.3721 10.1875 10.6667 10.9317 10.6667 11.8494C10.6667 12.7672 11.3721 13.5114 12.2421 13.5114C13.1121 13.5114 13.8175 12.7672 13.8175 11.8494Z" stroke="#F6EDE5" stroke-width="1.5" stroke-linecap="round" stroke-linejoin="round"/>
<path fill-rule="evenodd" clip-rule="evenodd" d="M21.3333 18.7254C21.3333 17.8076 20.6284 17.0635 19.7584 17.0635C18.8879 17.0635 18.1825 17.8076 18.1825 18.7254C18.1825 19.6432 18.8879 20.3873 19.7584 20.3873C20.6284 20.3873 21.3333 19.6432 21.3333 18.7254Z" stroke="#F6EDE5" stroke-width="1.5" stroke-linecap="round" stroke-linejoin="round"/>
<defs>
<linearGradient id="paint0_linear_2051_257" x1="16" y1="0" x2="16" y2="32" gradientUnits="userSpaceOnUse">
<stop stop-color="#9BCCC1"/>
<stop offset="1" stop-color="#FFB5A0"/>
</linearGradient>
</defs>
</svg>
