<svg width="34" height="34" viewBox="0 0 34 34" fill="none" xmlns="http://www.w3.org/2000/svg">
<path fill-rule="evenodd" clip-rule="evenodd" d="M16.6752 4.91682C18.9602 3.45582 21.7568 3.08131 24.3344 3.89241C26.5763 4.58963 28.4404 6.19161 29.4936 8.32502C30.7249 10.9108 30.8927 13.8903 29.9594 16.6024C29.1003 19.0991 27.6913 21.3628 25.8412 23.2196C24.6283 24.4662 23.3211 25.6137 21.932 26.6522L21.8588 26.7147C21.3973 27.0254 20.7762 26.9036 20.4613 26.4403C20.3013 26.2165 20.2374 25.9357 20.2836 25.6629C20.3299 25.3903 20.4823 25.1482 20.7064 24.992C22.01 24.0098 23.2392 22.9291 24.3832 21.7586C26.0307 20.1373 27.2891 18.1504 28.06 15.953C28.8013 13.7633 28.651 11.3621 27.643 9.28596C26.8318 7.65285 25.4027 6.42687 23.685 5.89045C21.4939 5.19248 19.1067 5.61545 17.2758 7.0262C16.9118 7.30086 16.4142 7.30079 16.0502 7.0262C14.2201 5.61325 11.8311 5.1903 9.64004 5.89045C7.91086 6.41505 6.46705 7.63711 5.64492 9.27327C4.65964 11.3479 4.51925 13.7358 5.25332 15.9158C6.02744 18.108 7.28557 20.09 8.93008 21.7088C11.36 24.0824 14.0398 26.1759 16.9203 27.951C17.2865 28.2099 17.4471 28.6802 17.3188 29.1151C17.1902 29.5498 16.8015 29.851 16.3559 29.8612C16.155 29.8623 15.9585 29.8013 15.7924 29.6864C12.7917 27.8375 10.0008 25.6557 7.4711 23.1815C5.61097 21.3309 4.19709 19.0663 3.34121 16.5653C2.44011 13.8569 2.62511 10.8952 3.85586 8.32502C4.90898 6.19168 6.77324 4.58966 9.01504 3.89241C11.5927 3.0813 14.3902 3.45576 16.6752 4.91682ZM22.0668 9.02424C23.894 9.61186 25.1949 11.2615 25.3637 13.2059C25.3982 13.4777 25.3243 13.7527 25.1586 13.9686C24.9927 14.1845 24.7482 14.3241 24.4809 14.3553C23.9198 14.4289 23.4057 14.027 23.3295 13.4559C23.2782 12.3022 22.5236 11.3041 21.4418 10.9588C21.0399 10.703 20.8612 10.2007 21.0092 9.74202C21.1574 9.28321 21.5941 8.98688 22.0668 9.02424Z" fill="#FFB5A0"/>
</svg>
