<svg width="15" height="15" viewBox="0 0 15 15" fill="none" xmlns="http://www.w3.org/2000/svg">
<g clip-path="url(#clip0_33_253)">
<path d="M11.0856 0H3.69536C1.66324 0 0.000267029 1.66297 0.000267029 3.69509V11.0856C0.000267029 13.1172 1.66324 14.7807 3.69536 14.7807H11.0856C13.1177 14.7807 14.7806 13.1172 14.7806 11.0856V3.69509C14.7806 1.66297 13.1177 0 11.0856 0ZM13.5489 11.0856C13.5489 12.4436 12.4443 13.549 11.0856 13.549H3.69536C2.33723 13.549 1.23203 12.4436 1.23203 11.0856V3.69509C1.23203 2.33679 2.33723 1.23176 3.69536 1.23176H11.0856C12.4443 1.23176 13.5489 2.33679 13.5489 3.69509V11.0856Z" fill="black"/>
<path d="M11.394 4.31141C11.9042 4.31141 12.3178 3.89783 12.3178 3.38764C12.3178 2.87745 11.9042 2.46387 11.394 2.46387C10.8838 2.46387 10.4702 2.87745 10.4702 3.38764C10.4702 3.89783 10.8838 4.31141 11.394 4.31141Z" fill="black"/>
<path d="M7.39037 3.69434C5.34919 3.69434 3.69527 5.34843 3.69527 7.38943C3.69527 9.42967 5.34919 11.0849 7.39037 11.0849C9.43097 11.0849 11.0855 9.42967 11.0855 7.38943C11.0855 5.34843 9.43097 3.69434 7.39037 3.69434ZM7.39037 9.85313C6.03 9.85313 4.92703 8.75016 4.92703 7.38943C4.92703 6.0287 6.03 4.92609 7.39037 4.92609C8.75073 4.92609 9.85371 6.0287 9.85371 7.38943C9.85371 8.75016 8.75073 9.85313 7.39037 9.85313Z" fill="black"/>
</g>
<defs>
<clipPath id="clip0_33_253">
<rect width="14.7807" height="14.7807" fill="white"/>
</clipPath>
</defs>
</svg>
