<svg width="22" height="22" viewBox="0 0 22 22" fill="none" xmlns="http://www.w3.org/2000/svg">
<path d="M10.9863 5.32227C14.0625 5.32227 16.6016 7.86133 16.6016 10.9375C16.6016 14.0625 14.0625 16.5527 10.9863 16.5527C7.86133 16.5527 5.37109 14.0625 5.37109 10.9375C5.37109 7.86133 7.86133 5.32227 10.9863 5.32227ZM10.9863 14.5996C12.9883 14.5996 14.5996 12.9883 14.5996 10.9375C14.5996 8.93555 12.9883 7.32422 10.9863 7.32422C8.93555 7.32422 7.32422 8.93555 7.32422 10.9375C7.32422 12.9883 8.98438 14.5996 10.9863 14.5996ZM18.1152 5.12695C18.1152 4.39453 17.5293 3.80859 16.7969 3.80859C16.0645 3.80859 15.4785 4.39453 15.4785 5.12695C15.4785 5.85938 16.0645 6.44531 16.7969 6.44531C17.5293 6.44531 18.1152 5.85938 18.1152 5.12695ZM21.8262 6.44531C21.9238 8.25195 21.9238 13.6719 21.8262 15.4785C21.7285 17.2363 21.3379 18.75 20.0684 20.0684C18.7988 21.3379 17.2363 21.7285 15.4785 21.8262C13.6719 21.9238 8.25195 21.9238 6.44531 21.8262C4.6875 21.7285 3.17383 21.3379 1.85547 20.0684C0.585938 18.75 0.195312 17.2363 0.0976562 15.4785C0 13.6719 0 8.25195 0.0976562 6.44531C0.195312 4.6875 0.585938 3.125 1.85547 1.85547C3.17383 0.585938 4.6875 0.195312 6.44531 0.0976562C8.25195 0 13.6719 0 15.4785 0.0976562C17.2363 0.195312 18.7988 0.585938 20.0684 1.85547C21.3379 3.125 21.7285 4.6875 21.8262 6.44531ZM19.4824 17.3828C20.0684 15.9668 19.9219 12.5488 19.9219 10.9375C19.9219 9.375 20.0684 5.95703 19.4824 4.49219C19.0918 3.56445 18.3594 2.7832 17.4316 2.44141C15.9668 1.85547 12.5488 2.00195 10.9863 2.00195C9.375 2.00195 5.95703 1.85547 4.54102 2.44141C3.56445 2.83203 2.83203 3.56445 2.44141 4.49219C1.85547 5.95703 2.00195 9.375 2.00195 10.9375C2.00195 12.5488 1.85547 15.9668 2.44141 17.3828C2.83203 18.3594 3.56445 19.0918 4.54102 19.4824C5.95703 20.0684 9.375 19.9219 10.9863 19.9219C12.5488 19.9219 15.9668 20.0684 17.4316 19.4824C18.3594 19.0918 19.1406 18.3594 19.4824 17.3828Z" fill="#FFB5A0"/>
</svg>
