<svg width="33" height="27" viewBox="0 0 33 27" fill="none" xmlns="http://www.w3.org/2000/svg">
<g clip-path="url(#clip0_43_681)">
<path d="M16.6039 14.4034C11.6307 14.5229 7.16073 18.8606 7.1498 23.8355C7.1498 24.8638 7.8316 26.2216 8.65195 26.8154C9.26448 27.2571 10.6208 26.7973 11.6089 26.5692C12.1703 26.4388 12.6771 26.0116 13.1621 25.6531C15.7434 23.7558 18.2847 23.7269 20.8296 25.7183C21.2562 26.0514 21.7302 26.4279 22.2333 26.5293C23.2287 26.7321 24.6105 27.2064 25.1939 26.7538C26.0069 26.1274 26.6523 24.7479 26.6377 23.6979C26.5721 18.7918 21.577 14.2803 16.6002 14.3998L16.6039 14.4034Z" fill="#FFB5A0"/>
<path d="M26.8784 5.63017C26.5539 2.59597 24.9388 0.195408 22.8605 0.0143704C20.9063 -0.155805 18.6312 1.87182 18.1317 4.52222C17.8801 5.84379 17.8874 7.28123 18.1317 8.60281C18.4416 10.2973 19.5281 11.6008 21.3511 11.8724C23.1085 12.1331 24.4502 11.1554 25.256 9.74335C25.9815 8.47608 26.3534 7.00968 26.8821 5.63379L26.8784 5.63017Z" fill="#FFB5A0"/>
<path d="M6.39883 5.35498C6.62853 7.54192 7.28845 9.37765 8.82342 10.826C10.6647 12.5675 13.0017 12.2598 14.4018 10.1489C16.1884 7.46227 15.4592 2.94356 12.9179 0.934036C11.0767 -0.521509 8.99114 -0.282539 7.78796 1.71974C7.13167 2.81683 6.84729 4.13479 6.39518 5.35498H6.39883Z" fill="#FFB5A0"/>
<path d="M7.36134 14.7038C6.39515 13.0962 5.79356 11.5574 4.72893 10.4603C3.34709 9.03735 1.26522 9.6565 0.419348 11.4705C-0.535906 13.5199 0.196942 16.793 2.14026 17.948C2.93509 18.4224 4.49558 18.6577 5.08988 18.2015C6.06336 17.4592 6.5337 16.0652 7.36499 14.7002L7.36134 14.7038Z" fill="#FFB5A0"/>
<path d="M26.0689 14.6859C26.4153 16.7823 27.2757 18.2234 28.7086 18.5275C30.59 18.9258 31.8187 17.8613 32.3984 16.3442C32.8906 15.0588 33.1312 13.5309 32.9307 12.1912C32.8031 11.3331 31.7931 10.1998 30.9582 9.9608C30.1269 9.72545 28.6904 10.1744 28.1107 10.837C27.1773 11.8979 26.7252 13.3824 26.0726 14.6859H26.0689Z" fill="#FFB5A0"/>
</g>
<defs>
<clipPath id="clip0_43_681">
<rect width="33" height="27" fill="white" transform="matrix(-1 0 0 1 33 0)"/>
</clipPath>
</defs>
</svg>
