<svg width="32" height="29" viewBox="0 0 32 29" fill="none" xmlns="http://www.w3.org/2000/svg">
<path d="M22.4785 0C27.5463 0.0154939 31.6516 4.15065 31.667 9.25586V11.5693C31.667 12.1927 31.1647 12.6982 30.5459 12.6982L30.5322 12.6699C30.2351 12.6699 29.9504 12.5505 29.7402 12.3389C29.5301 12.1272 29.4121 11.8404 29.4121 11.541V9.25586C29.3742 5.4147 26.2916 2.30971 22.4785 2.27148H9.1875C5.37454 2.3098 2.29283 5.41475 2.25488 9.25586V19.2441C2.29283 23.0852 5.37454 26.1902 9.1875 26.2285H22.4785C26.2916 26.1903 29.3742 23.0853 29.4121 19.2441C29.4764 18.6659 29.9614 18.2286 30.5391 18.2285C31.1168 18.2285 31.6027 18.6658 31.667 19.2441C31.6516 24.3494 27.5463 28.4845 22.4785 28.5H9.1875C4.11657 28.4921 0.00771249 24.3525 0 19.2441V9.25586C0 4.14428 4.11337 9.49353e-05 9.1875 0H22.4785ZM6.7998 8.5293C7.09458 8.49756 7.38989 8.58603 7.61914 8.77539L14.2021 14.0244C15.0244 14.674 16.1808 14.6742 17.0029 14.0244L23.5156 8.77539H23.5293C24.0142 8.38715 24.7192 8.46307 25.1123 8.94531C25.2994 9.18033 25.3857 9.48099 25.3516 9.78027C25.3174 10.0798 25.1651 10.3529 24.9297 10.5391L18.417 15.8018C16.761 17.1441 14.401 17.1441 12.7451 15.8018L6.21875 10.5391C5.74001 10.143 5.66529 9.43383 6.05078 8.94531C6.23507 8.71119 6.50489 8.56113 6.7998 8.5293Z" fill="#FFB5A0"/>
</svg>
