<svg width="117" height="61" viewBox="0 0 117 61" fill="none" xmlns="http://www.w3.org/2000/svg">
<path d="M51.4207 29.0967C52.1211 28.8742 52.7477 28.6793 53.3712 28.4763C57.0054 27.2919 60.6345 26.0931 64.2739 24.9231C66.5145 24.2022 68.7469 23.4392 71.0224 22.8527C72.818 22.3902 74.673 22.1574 76.5066 21.8477C76.9024 21.7811 77.1465 21.6847 77.3239 21.256C77.7956 20.1219 78.4939 19.1364 79.5553 18.4545C81.2739 17.35 83.451 17.6074 85.2322 19.1384C85.504 19.3722 85.7788 19.6091 86.0126 19.8788C86.3059 20.2182 86.5786 20.1516 86.7202 19.8081C86.9693 19.203 87.1642 18.5724 87.3354 17.9397C87.6021 16.9563 87.7538 15.9339 88.0974 14.9802C88.3578 14.2583 88.89 13.6676 89.6827 13.4071C90.3093 13.201 90.9451 13.4902 91.0835 14.125C91.1594 14.4757 91.2035 14.9258 91.0486 15.2171C90.3616 16.5051 90.3462 17.9099 90.2047 19.2974C90.1493 19.8409 90.0816 20.3833 89.9986 20.9227C89.8478 21.9103 89.4243 22.7757 88.7116 23.5777C95.0213 25.9947 99.5271 30.0514 101.209 36.9107C101.579 36.3354 102.019 35.7929 102.304 35.1777C103.096 33.4682 103.045 31.6655 102.777 29.8473C102.363 27.0468 101.376 24.436 100.18 21.8939C98.6781 18.6975 97.0865 15.538 96.1175 12.1202C95.3012 9.24172 95.1843 6.353 96.1739 3.49811C96.6589 2.09836 97.4629 0.89652 98.916 0.28432C100.472 -0.371974 102.042 0.12845 102.905 1.57332C103.453 2.49009 103.711 3.48786 103.68 4.55741C103.638 6.06074 103.63 7.56509 103.55 9.06637C103.378 12.3089 104.001 15.414 105.03 18.4688C105.781 20.6992 106.554 22.9296 107.157 25.203C107.987 28.3337 107.98 31.4891 106.954 34.5983C105.961 37.608 104.271 40.0332 101.257 41.3468C101.118 41.4073 101.02 41.6565 100.979 41.835C100.535 43.7977 99.641 45.4866 98.0033 46.712C96.8353 47.5857 95.5022 48.0564 94.0481 48.0749C91.7254 48.1046 89.4007 48.0749 87.077 48.0708C77.9176 48.0554 68.7582 48.038 59.5998 48.0257C52.5077 48.0164 45.4167 48.0021 38.3246 48.0093C32.2067 48.0154 26.0898 48.0554 19.9719 48.0687C18.8654 48.0708 17.7333 48.1405 16.7704 47.4176C16.0475 46.8751 15.4978 46.2403 15.5337 45.2497C15.5399 45.0898 15.3779 44.8539 15.2281 44.7688C13.6971 43.9054 12.1487 43.0727 10.6166 42.2113C10.4464 42.1159 10.2065 41.8216 10.2454 41.7427C10.3439 41.5437 10.5643 41.3171 10.7715 41.274C12.1415 40.991 13.5197 40.7541 14.8959 40.5029C14.9461 40.4937 14.9984 40.4916 15.0497 40.4937C15.8014 40.5254 16.1982 40.2219 16.4607 39.4528C17.2637 37.1004 18.7875 35.2259 20.6364 33.5985C21.225 33.0806 21.2363 32.9781 20.8907 32.252C20.2006 30.8041 19.5105 29.3551 18.8203 27.9072C18.769 27.7995 18.6788 27.6887 18.6809 27.5811C18.6839 27.4078 18.7024 27.1914 18.806 27.0796C18.8736 27.0068 19.1351 27.0335 19.2592 27.1042C20.2529 27.6703 21.2332 28.2599 22.2197 28.8383C23.1621 29.391 24.1004 29.9509 25.0572 30.478C25.2202 30.5682 25.4879 30.5795 25.6663 30.5139C28.7099 29.4043 31.8047 29.232 34.9303 30.0596C36.6141 30.5057 38.1246 31.3455 39.4875 32.4325C39.7131 32.613 39.8771 32.6397 40.1632 32.5576C41.2759 32.2387 42.3885 31.8685 43.5288 31.7126C44.9326 31.5209 45.8997 30.7887 46.597 29.6504C47.2645 28.5614 47.8798 27.4375 48.4705 26.3033C49.2427 24.8195 50.0702 23.3838 51.5735 22.5163C52.0688 22.2302 52.6195 22.0108 53.1722 21.861C53.6911 21.7195 54.251 21.7349 54.5997 22.2661C54.9719 22.8342 54.8776 23.4249 54.5228 23.9499C54.2777 24.3139 53.9567 24.6349 53.6347 24.9374C52.5405 25.9629 51.8545 27.215 51.4966 28.6588C51.47 28.7685 51.4556 28.8813 51.4187 29.0905L51.4207 29.0967ZM91.8403 36.5374C91.8218 36.6154 91.8044 36.6923 91.7859 36.7702C92.0208 36.8625 92.2505 37.0143 92.4915 37.0348C93.5415 37.124 94.3803 36.3744 94.4931 35.1479C94.5834 34.1666 94.5352 33.1719 94.5424 32.1823C94.5496 31.2512 94.567 30.3416 95.3802 29.6597C95.7432 29.3561 95.6724 28.9254 95.4591 28.5296C94.9095 27.5113 93.3385 27.2365 92.4228 27.9738C91.8403 28.4424 91.6844 29.1018 91.5378 29.7694C91.4137 30.3354 91.3593 30.9189 91.2117 31.4778C91.0076 32.251 90.4016 32.5453 89.6417 32.2951C89.4961 32.2469 89.3535 32.1905 89.2079 32.1413C86.9919 31.3896 85.2107 32.1259 84.3349 34.2937C83.9586 35.2269 83.7832 36.2565 83.6294 37.2593C83.3669 38.9719 83.6869 40.6629 83.9945 42.3436C84.0171 42.4687 84.1534 42.5723 84.2365 42.6861C84.3196 42.5559 84.4683 42.4267 84.4724 42.2933C84.4816 41.9898 84.4395 41.6801 84.3831 41.3797C84.0078 39.4087 83.9566 37.4357 84.4672 35.4874C84.8231 34.1307 85.5163 33.0088 86.9724 32.5504C87.8164 32.2848 88.5844 32.574 89.3741 32.7894C90.7287 33.1585 91.586 32.6181 91.8628 31.2276C91.9992 30.5426 92.0361 29.8299 92.2464 29.1705C92.6422 27.9266 93.881 27.6375 94.85 28.5081C95.2356 28.8547 95.2735 29.1623 94.8787 29.4935C94.247 30.0227 94.0132 30.7118 93.9979 31.486C93.9794 32.4417 94.0348 33.3985 94.0112 34.3532C93.9999 34.8075 93.9343 35.2761 93.7948 35.7068C93.6041 36.2934 93.1939 36.5118 92.5755 36.5036C92.3305 36.5005 92.0854 36.5251 91.8403 36.5364V36.5374ZM47.1743 40.1019C47.1999 40.1655 47.2245 40.2281 47.2502 40.2916C47.4163 40.2629 47.6163 40.2845 47.7414 40.1973C48.1044 39.945 48.4582 39.6702 48.7791 39.3667C50.3696 37.8613 51.834 36.2462 53.121 34.466C54.4828 32.5843 56.2722 31.2553 58.5282 30.6215C58.9804 30.4944 59.4716 30.4585 59.9433 30.4626C60.6765 30.4698 60.938 30.8492 60.8181 31.568C60.6837 32.3741 60.0664 32.773 59.4634 33.1473C58.199 33.9307 57.2197 34.9664 56.465 36.24C55.8815 37.2224 55.2642 38.1853 54.6458 39.1462C54.4376 39.4702 54.5392 39.6784 54.855 39.905C54.9852 39.7502 55.137 39.6128 55.2355 39.4446C55.6918 38.6632 56.1338 37.8736 56.5809 37.0871C57.3151 35.796 58.2052 34.6557 59.4839 33.8364C60.0377 33.4816 60.5484 33.0334 61.0016 32.5545C61.5174 32.01 61.5625 31.3086 61.2785 30.6359C60.9996 29.9755 60.3822 29.8217 59.7393 29.8607C59.2153 29.8924 58.6789 29.9581 58.1785 30.1068C55.6979 30.8451 53.8265 32.4212 52.3877 34.5173C51.1398 36.3354 49.6293 37.9003 47.9936 39.3595C47.7198 39.6036 47.4502 39.8538 47.1784 40.1009L47.1743 40.1019ZM28.5848 37.5444C30.2706 37.5331 31.4642 36.3303 31.4458 34.6608C31.4294 33.1247 30.1496 31.8306 28.6432 31.8265C27.0466 31.8224 25.7094 33.1073 25.7145 34.6424C25.7196 36.3005 26.9604 37.5557 28.5848 37.5444ZM26.0262 43.8879C26.0693 42.4113 25.5545 41.2699 24.1148 40.751C22.995 40.347 21.6475 40.7716 20.8835 41.7345C19.9309 42.9363 20.1104 44.133 20.9974 45.2805C20.741 45.5481 20.497 45.785 20.2785 46.0445C20.2232 46.1111 20.2129 46.3183 20.2488 46.3388C20.3452 46.3921 20.4816 46.3993 20.5954 46.3819C20.6682 46.3706 20.7297 46.2824 20.7954 46.228C22.0792 45.1667 23.5456 44.6016 25.2202 44.6201C25.817 44.6273 26.4139 44.6734 27.0097 44.6704C27.1655 44.6704 27.3214 44.5524 27.4773 44.4888C27.3614 44.3627 27.267 44.1699 27.1235 44.1228C26.7882 44.011 26.4292 43.97 26.0242 43.8879H26.0262ZM28.4925 40.9449C28.7796 40.9233 28.9232 40.9367 29.0503 40.8977C29.3764 40.7982 29.6943 40.6741 30.0163 40.5603C29.8256 40.2147 29.6789 39.8322 29.4318 39.5338C29.199 39.2518 28.8514 39.259 28.5725 39.5266C28.4145 39.6784 28.2607 39.8507 28.1623 40.0435C28.0525 40.2568 27.8905 40.5613 27.9685 40.7203C28.0464 40.8792 28.392 40.9069 28.4925 40.9449ZM32.5533 36.1713C32.502 36.1375 32.4497 36.1026 32.3984 36.0688C32.0939 36.5928 31.7893 37.1168 31.4858 37.6408C31.5442 37.6747 31.6027 37.7085 31.6611 37.7434C31.9585 37.2194 32.2569 36.6954 32.5543 36.1724L32.5533 36.1713ZM33.307 38.171C33.2783 38.1156 33.2486 38.0592 33.2198 38.0038L31.9913 38.6796C32.0201 38.7319 32.0498 38.7832 32.0785 38.8355C32.4877 38.614 32.8978 38.3925 33.307 38.171ZM30.2675 42.9989L30.0973 43.1178C30.3711 43.5177 30.6439 43.9177 30.9167 44.3176L31.0407 44.2345C30.7823 43.8223 30.5249 43.4101 30.2665 42.9989H30.2675Z" fill="#9BCCC1"/>
<path d="M60.2604 55.8909C60.6408 56.7421 61.01 57.5081 61.3279 58.2956C61.5463 58.835 61.5237 59.3714 61.05 59.801C60.4932 60.3056 59.7476 60.2194 59.3621 59.5272C59.0411 58.9509 58.8514 58.3039 58.5776 57.6999C58.4781 57.4814 58.2556 57.1082 58.1695 57.1297C57.7777 57.2281 57.3101 57.2876 57.183 57.8086C57.0743 58.2536 56.984 58.711 56.8118 59.1324C56.5708 59.72 56.1401 59.96 55.6161 59.8954C55.088 59.8308 54.7116 59.4903 54.6091 58.8894C54.5383 58.4731 54.525 58.0413 54.5393 57.6178C54.5906 56.0827 54.6757 54.5496 54.7239 53.0145C54.7649 51.7265 55.2961 51.1185 56.5933 50.9728C57.7767 50.8406 58.915 51.059 59.9773 51.5707C61.5566 52.3326 61.8703 54.3169 60.6408 55.571C60.5116 55.7033 60.3568 55.811 60.2614 55.892L60.2604 55.8909ZM57.0702 55.6418C57.6906 55.3198 58.1797 55.0931 58.6381 54.8173C58.9211 54.6471 59.0575 54.361 58.8955 54.0246C58.7263 53.6739 57.8905 53.3724 57.3747 53.5385C57.1686 53.6052 56.8917 53.8708 56.8835 54.0564C56.8651 54.5199 56.982 54.9885 57.0702 55.6418Z" fill="#FAC8AE"/>
<path d="M19.6492 55.3023C21.1289 56.4324 20.6254 58.2485 19.4636 59.0299C18.2822 59.8236 16.9891 60.0769 15.6058 59.8554C14.8644 59.7374 14.4009 59.1806 14.326 58.269C14.245 57.2835 14.2481 56.2899 14.2317 55.3003C14.2173 54.4461 14.2142 53.5919 14.2317 52.7377C14.2481 51.9368 14.5711 51.503 15.3525 51.3861C16.6579 51.1902 17.9828 51.1533 19.2698 51.4815C20.9474 51.9091 21.3627 53.638 20.1178 54.8532C19.9722 54.9947 19.8245 55.1342 19.6482 55.3034L19.6492 55.3023ZM16.096 57.3717C16.2631 57.666 16.4221 58.0854 16.5061 58.0711C16.9973 57.986 17.5029 57.8588 17.9387 57.625C18.2361 57.465 18.3807 57.0928 18.0966 56.7472C17.8772 56.4796 17.0261 56.3555 16.6056 56.6088C16.3851 56.7421 16.2846 57.0743 16.096 57.3717ZM17.224 53.236C17.2004 53.2791 17.1758 53.3222 17.1522 53.3652C17.1009 53.3652 17.0496 53.3652 16.9994 53.3652C16.4149 53.3786 16.2877 53.5211 16.2949 54.0441C16.3031 54.6245 16.6938 54.4594 17.0138 54.4481C17.0814 54.4461 17.1522 54.444 17.2158 54.4225C17.6003 54.2964 18.1992 54.3405 18.1643 53.798C18.151 53.5908 17.5552 53.4216 17.225 53.236H17.224Z" fill="#FAC8AE"/>
<path d="M0.00200285 55.5505C0.00200285 54.7147 -0.00312445 53.878 0.00302831 53.0422C0.0102065 52.1942 0.39578 51.6568 1.20794 51.4128C2.43747 51.0436 3.66905 51.0672 4.87602 51.5122C6.24296 52.0168 7.0018 53.397 6.81004 54.9814C6.49932 57.545 4.31509 59.6749 1.74734 59.9189C0.7752 60.0112 0.143516 59.5518 0.0768615 58.5674C0.00918108 57.5665 0.0614796 56.5575 0.0614796 55.5515C0.0409704 55.5515 0.0214866 55.5515 0.000977392 55.5515L0.00200285 55.5505ZM2.43337 55.4028C2.42824 55.4028 2.42209 55.4028 2.41696 55.4028C2.41696 55.7269 2.41696 56.0509 2.41696 56.375C2.41696 56.4088 2.41696 56.4437 2.42004 56.4775C2.47336 57.0436 2.74716 57.2046 3.2322 56.941C3.91311 56.5708 4.28535 55.973 4.36944 55.2203C4.46583 54.3579 3.67828 53.6503 2.83125 53.84C2.67435 53.8759 2.47746 54.1118 2.45183 54.2799C2.3944 54.646 2.4344 55.0275 2.4344 55.4028H2.43337Z" fill="#FAC8AE"/>
<path d="M37.328 52.067C37.732 51.7255 38.1094 51.382 38.5134 51.0713C39.1738 50.5637 39.9111 50.5678 40.6494 50.8518C41.1396 51.0405 41.356 51.4517 41.4134 51.9716C41.5734 53.4216 40.9581 54.5599 39.9911 55.5536C39.2046 56.3606 38.4047 57.1543 37.5997 57.9429C36.9988 58.5315 36.724 58.5243 36.2717 57.8444C35.4893 56.6662 34.7151 55.4797 33.9932 54.2646C33.463 53.3724 33.4158 52.3859 33.6855 51.3881C33.8916 50.6252 34.4997 50.2417 35.276 50.3863C36.0974 50.5401 36.7096 50.9933 37.1321 51.7101C37.2172 51.8547 37.2952 52.0045 37.33 52.067H37.328Z" fill="#FAC8AE"/>
<path d="M105.398 55.5874C105.398 54.5968 105.387 53.6062 105.401 52.6167C105.415 51.5532 105.89 51.0641 106.944 51.0908C107.744 51.1102 108.546 51.1759 109.338 51.2877C110.015 51.383 110.344 51.8117 110.267 52.35C110.185 52.9222 109.735 53.2288 109.061 53.1786C108.789 53.1581 108.498 53.0873 108.25 53.1591C108.056 53.2145 107.82 53.4319 107.774 53.6185C107.7 53.9139 107.887 54.1374 108.236 54.1436C108.493 54.1477 108.748 54.1559 109.004 54.161C109.891 54.1784 110.269 54.5076 110.227 55.2305C110.184 55.9699 109.775 56.257 108.906 56.1617C108.753 56.1453 108.6 56.1309 108.446 56.1258C108.117 56.1135 107.869 56.2222 107.841 56.5934C107.815 56.9472 108.019 57.1553 108.339 57.1974C108.811 57.2599 109.29 57.2753 109.767 57.2999C110.68 57.3471 110.968 57.584 110.99 58.3182C111.013 59.1068 110.586 59.6134 109.771 59.6718C109.125 59.718 108.474 59.6923 107.826 59.6995C107.416 59.7036 107.007 59.7159 106.596 59.7149C105.73 59.7108 105.377 59.3673 105.37 58.5089C105.363 57.5358 105.368 56.5626 105.368 55.5895C105.378 55.5895 105.387 55.5895 105.398 55.5895V55.5874Z" fill="#FAC8AE"/>
<path d="M70.7698 59.9682C70.3084 59.9682 69.8479 59.963 69.3865 59.9692C68.4974 59.9815 68.1272 59.6534 68.1098 58.7581C68.0923 57.8711 68.1231 56.982 68.1293 56.094C68.1375 54.9496 68.1385 53.8052 68.1508 52.6607C68.16 51.825 68.481 51.4035 69.2942 51.4025C70.295 51.4025 71.301 51.4917 72.2947 51.622C72.9069 51.7019 73.1755 52.1316 73.1058 52.6669C73.0412 53.1612 72.6208 53.4616 72.0137 53.4432C71.6722 53.4329 71.3215 53.3673 70.9934 53.4268C70.8211 53.4575 70.5565 53.7149 70.5668 53.8513C70.5822 54.04 70.7883 54.3199 70.9647 54.3661C71.302 54.4553 71.6753 54.3989 72.0332 54.4184C72.7213 54.4553 73.0392 54.8491 72.9561 55.5443C72.871 56.2581 72.4967 56.5534 71.8209 56.4498C71.6363 56.4211 71.4476 56.4068 71.261 56.3975C70.9318 56.3811 70.6273 56.4129 70.5986 56.8426C70.5699 57.2702 70.8088 57.4794 71.2026 57.5132C71.7296 57.5583 72.2598 57.5707 72.7879 57.6076C73.2032 57.6363 73.4883 57.8475 73.6247 58.2485C73.8811 59.0073 73.3817 59.8185 72.5613 59.8892C71.9686 59.9415 71.3677 59.8995 70.7698 59.8995C70.7698 59.922 70.7698 59.9446 70.7698 59.9661V59.9682Z" fill="#FAC8AE"/>
<path d="M62.0332 55.8438C62.0332 54.8368 62.0178 53.8287 62.0373 52.8217C62.0578 51.7676 62.4116 51.3933 63.4709 51.3984C64.321 51.4025 65.1742 51.4825 66.0202 51.5789C66.6498 51.6507 66.9769 52.0721 66.9164 52.6095C66.857 53.1304 66.4273 53.4555 65.81 53.4411C65.4859 53.4339 65.1506 53.3663 64.843 53.4298C64.6666 53.4657 64.402 53.7231 64.4133 53.8605C64.4297 54.0513 64.6379 54.324 64.8194 54.3794C65.1178 54.4697 65.4603 54.4122 65.7843 54.4204C66.495 54.4368 66.8662 54.8398 66.8077 55.5269C66.7421 56.2868 66.3576 56.5913 65.61 56.4755C65.4418 56.4498 65.2736 56.4221 65.1034 56.4068C64.7855 56.3791 64.5086 56.4334 64.4728 56.8251C64.4369 57.2138 64.6297 57.462 65.006 57.506C65.4623 57.5594 65.9248 57.5666 66.3852 57.584C67.1933 57.6158 67.5307 57.8988 67.5471 58.5684C67.5676 59.4339 67.2395 59.8513 66.416 59.8923C65.2747 59.9487 64.1303 59.9692 62.9869 59.9795C62.3736 59.9846 62.0281 59.6185 62.0188 58.9673C62.0034 57.9265 62.0147 56.8846 62.0147 55.8427C62.0209 55.8427 62.027 55.8427 62.0342 55.8427L62.0332 55.8438Z" fill="#FAC8AE"/>
<path d="M28.3884 58.6956C28.3782 59.2668 28.0797 59.6605 27.6306 59.7569C27.1466 59.8605 26.8543 59.6011 26.6451 59.2052C26.598 59.115 26.5621 59.0186 26.5231 58.9232C26.0975 57.8742 25.471 57.5563 24.3583 57.8885C24.1481 57.9511 23.9492 58.1757 23.8251 58.3756C23.7041 58.5705 23.6928 58.8309 23.6231 59.0586C23.4026 59.7764 22.9001 60.0533 22.1567 59.8728C21.5547 59.7272 21.163 59.1847 21.3394 58.5438C21.8665 56.619 22.4213 54.7004 23.0242 52.7982C23.2714 52.0198 23.9543 51.6691 24.7367 51.6158C25.4833 51.5645 25.9437 52.0475 26.2411 52.6597C26.5303 53.2565 26.7723 53.88 26.9948 54.5055C27.445 55.7761 27.8695 57.0569 28.3012 58.3346C28.3494 58.4782 28.373 58.6299 28.3884 58.6956ZM25.3028 56.0653C25.148 55.7515 25.0269 55.5033 24.8649 55.1731C24.7798 55.3741 24.7265 55.4746 24.6947 55.5813C24.6527 55.7248 24.628 55.8735 24.585 56.0653H25.3018H25.3028Z" fill="#FAC8AE"/>
<path d="M114.007 59.8123C113.379 59.6646 112.742 59.5488 112.128 59.3611C111.62 59.2052 111.311 58.6515 111.433 58.2546C111.558 57.8465 112.014 57.6486 112.593 57.7655C112.911 57.8291 113.221 57.9449 113.541 57.9778C113.883 58.0126 114.255 57.9972 114.411 57.6035C114.569 57.2056 114.323 56.9544 114.019 56.7564C113.619 56.496 113.204 56.2581 112.807 55.9925C111.588 55.1762 111.242 53.76 111.97 52.4823C112.664 51.2651 113.763 50.6088 115.127 50.4755C115.565 50.4324 116.083 50.5944 116.476 50.818C117.084 51.1636 116.992 51.8117 116.359 52.1244C115.903 52.35 115.41 52.5295 115.006 52.8279C114.174 53.4421 114.199 54.1589 115.017 54.8009C115.367 55.0747 115.732 55.328 116.077 55.6069C116.838 56.2211 117.154 57.0179 116.929 57.9726C116.7 58.9509 115.991 59.4431 115.047 59.6267C114.713 59.6913 114.37 59.7087 114.031 59.7477C114.023 59.7692 114.015 59.7908 114.008 59.8123H114.007Z" fill="#FAC8AE"/>
<path d="M9.78465 55.0008C9.82875 55.6623 9.86464 56.3247 9.92206 56.9851C9.93847 57.1687 9.97436 57.3799 10.081 57.5173C10.2369 57.7193 10.4635 57.9993 10.6614 58.0003C10.8911 58.0024 11.2111 57.7911 11.3372 57.5799C11.7556 56.8805 11.7771 56.095 11.7033 55.2972C11.653 54.7568 11.6018 54.2051 11.6571 53.6698C11.6869 53.3806 11.8879 53.0596 12.1053 52.8505C12.4703 52.4997 12.9769 52.5941 13.2425 53.0289C13.3809 53.2555 13.4866 53.5262 13.5194 53.7877C13.6999 55.2541 13.7368 56.7154 13.1584 58.1193C12.6867 59.2657 11.3823 60.0246 10.0451 59.9425C8.74483 59.8626 7.94497 59.1827 7.6035 57.7891C7.25176 56.3514 7.19024 54.885 7.35739 53.4175C7.41584 52.9069 7.6763 52.4751 8.19724 52.2844C9.02478 51.9809 9.74466 52.5141 9.82362 53.5108C9.86259 54.0031 9.8308 54.5004 9.8308 54.9947C9.81541 54.9957 9.79901 54.9967 9.78363 54.9988L9.78465 55.0008Z" fill="#FAC8AE"/>
<path d="M45.6633 60.3117C45.0275 60.202 44.3825 60.1302 43.7601 59.9733C43.1356 59.8154 42.8751 59.3765 43.0228 58.8894C43.1509 58.4649 43.6483 58.2721 44.2205 58.4095C44.5661 58.4925 44.9229 58.6228 45.2644 58.5982C45.5054 58.5807 45.8623 58.3818 45.9269 58.1849C45.9925 57.9839 45.8253 57.6291 45.651 57.4466C45.4234 57.2076 45.0993 57.0487 44.7978 56.8928C42.269 55.5936 43.0033 52.9366 44.4769 51.9163C45.3536 51.3092 46.3053 51.0005 47.3697 51.1482C47.6261 51.1841 47.8978 51.3071 48.1049 51.464C48.5725 51.8199 48.5131 52.3921 47.9962 52.672C47.743 52.8094 47.4538 52.8822 47.2036 53.0238C46.8949 53.1991 46.5739 53.3786 46.3237 53.6226C45.7833 54.1497 45.7977 54.7076 46.3524 55.2254C46.7759 55.6202 47.2456 55.9648 47.6794 56.3493C48.4495 57.0323 48.7018 57.8865 48.3428 58.8484C47.9983 59.7703 47.2138 60.1199 46.2888 60.2102C46.0848 60.2297 45.8797 60.2338 45.6756 60.245C45.6715 60.2676 45.6674 60.2891 45.6633 60.3117Z" fill="#FAC8AE"/>
<path d="M82.0333 56.7821C81.9872 57.5142 81.9943 58.1777 81.8887 58.8217C81.7872 59.4442 81.4396 59.7323 81.0078 59.7221C80.5782 59.7118 80.2234 59.3334 80.1413 58.7284C80.0911 58.3582 80.0993 57.9798 80.0972 57.6045C80.0911 56.3063 80.0736 55.009 80.1003 53.7118C80.1085 53.3304 80.2018 52.9345 80.3372 52.5756C80.489 52.1726 80.851 51.9829 81.2816 52.0116C81.7195 52.0403 81.9595 52.3398 82.0271 52.7397C82.0887 53.1058 82.0928 53.4842 82.0877 53.8564C82.0825 54.2102 82.0333 54.563 81.9954 55.0152C82.6537 54.4553 83.2341 53.9405 83.8381 53.4565C84.1816 53.1807 84.5518 52.9304 84.9354 52.7141C85.3179 52.4987 85.7137 52.5387 85.9916 52.9038C86.2705 53.2688 86.208 53.679 85.8952 53.9733C85.4758 54.3681 85.0041 54.7076 84.5416 55.0542C84.2852 55.2459 84.0032 55.4038 83.7007 55.5977C84.1211 56.1001 84.5262 56.5575 84.8974 57.0395C85.1671 57.3891 85.4194 57.7593 85.6306 58.1459C85.9393 58.713 85.767 59.3416 85.2584 59.6728C84.7169 60.0246 84.0381 59.963 83.6566 59.4267C83.1634 58.7335 82.7491 57.9839 82.303 57.2579C82.2158 57.1164 82.14 56.9697 82.0343 56.7821H82.0333Z" fill="#FAC8AE"/>
<path d="M77.8825 54.1948C77.9768 54.9178 78.1163 55.6192 78.1491 56.3257C78.187 57.1389 78.1922 57.9624 78.1009 58.7694C78.0158 59.5242 77.5369 59.9272 76.9934 59.8851C76.3955 59.8379 75.9813 59.3232 75.9823 58.5602C75.9833 57.264 75.9977 55.9668 76.0366 54.6717C76.0479 54.2943 75.932 54.1477 75.5567 54.1436C75.2706 54.1405 74.9773 54.1015 74.6994 54.0318C74.2523 53.919 73.997 53.6185 74.0124 53.1427C74.0278 52.672 74.3221 52.268 74.7353 52.2813C76.2417 52.3326 77.7492 52.4577 79.2463 52.6351C79.4442 52.6587 79.6904 53.1304 79.7303 53.4196C79.7806 53.7928 79.4586 54.042 79.0966 54.1046C78.7151 54.1702 78.3224 54.1661 77.8825 54.1959V54.1948Z" fill="#FAC8AE"/>
<path d="M93.8108 54.0554C93.9297 54.9824 94.0989 55.8735 94.143 56.7718C94.1789 57.5112 94.1297 58.269 93.9995 58.9971C93.899 59.5621 93.4088 59.8359 92.9012 59.7867C92.41 59.7395 92.0644 59.4155 91.9711 58.8463C91.9198 58.5305 91.9301 58.2013 91.9373 57.8783C91.9609 56.8559 92.007 55.8335 92.0214 54.8101C92.0326 54.0769 92.0162 54.0769 91.2902 53.9959C91.1036 53.9754 90.9118 53.9754 90.7324 53.9282C90.3129 53.8185 90.0361 53.557 90.0258 53.1027C90.0145 52.6392 90.2309 52.2998 90.6975 52.2075C91.0277 52.1419 91.3753 52.1254 91.7127 52.1398C92.6325 52.1788 93.5534 52.228 94.4702 52.309C94.7645 52.3357 95.1018 52.4085 95.3223 52.5828C95.5284 52.7469 95.752 53.1089 95.7017 53.3211C95.6423 53.5703 95.3295 53.8544 95.067 53.9374C94.6763 54.0615 94.2333 54.0225 93.8118 54.0533L93.8108 54.0554Z" fill="#FAC8AE"/>
<path d="M99.8481 54.0359C99.9568 55.0911 100.09 56.1022 100.153 57.1174C100.184 57.6394 100.132 58.1757 100.042 58.6925C99.925 59.3632 99.4471 59.7395 98.8852 59.6975C98.356 59.6575 97.9848 59.2227 97.9797 58.5233C97.9705 57.1923 97.9858 55.8602 98.0258 54.5302C98.0392 54.079 97.8823 53.9036 97.4454 53.9426C97.3101 53.9549 97.1727 53.9426 97.0363 53.9374C96.4015 53.9139 95.9626 53.5273 95.9708 53.0012C95.98 52.4403 96.3697 52.0588 97.0342 52.0732C98.0064 52.0937 98.9764 52.1767 99.9475 52.2362C100.254 52.2547 100.564 52.2639 100.865 52.3152C101.357 52.3993 101.693 52.791 101.661 53.2299C101.625 53.7344 101.271 53.9262 100.833 53.9815C100.499 54.0236 100.161 54.0195 99.8491 54.0349L99.8481 54.0359Z" fill="#FAC8AE"/>
<path d="M50.5562 54.3774C50.0866 54.3333 49.6949 54.3179 49.3103 54.2564C48.8212 54.1774 48.5115 53.8103 48.5217 53.3375C48.532 52.8597 48.7976 52.5654 49.2631 52.5069C49.6128 52.4628 49.9728 52.468 50.3255 52.4885C51.2956 52.5469 52.2647 52.6167 53.2317 52.7028C53.445 52.7223 53.7188 52.7664 53.8439 52.9069C54.0274 53.1119 54.213 53.4257 54.1895 53.6729C54.1689 53.8872 53.8921 54.1846 53.6706 54.2502C53.2563 54.3722 52.801 54.3538 52.3211 54.3979C52.4195 55.1803 52.5569 55.9627 52.6051 56.7513C52.6482 57.4609 52.6061 58.1777 52.5692 58.8894C52.5579 59.1017 52.4615 59.3211 52.359 59.5139C52.157 59.8913 51.8176 60.0841 51.391 60.0625C50.9459 60.04 50.6629 59.761 50.547 59.356C50.464 59.0668 50.4322 58.752 50.4383 58.4495C50.464 57.2897 50.5152 56.1309 50.5542 54.9721C50.5603 54.7876 50.5542 54.603 50.5542 54.3784L50.5562 54.3774Z" fill="#FAC8AE"/>
<path d="M28.8741 57.0066C28.9807 56.0273 29.0617 55.1793 29.1674 54.3353C29.2289 53.8472 29.4401 53.4421 29.9826 53.3519C30.3959 53.2832 30.9896 53.639 31.0952 54.163C31.2552 54.9547 31.3454 55.7771 31.3321 56.5842C31.3188 57.3789 31.1732 58.1777 31.0204 58.9612C30.8973 59.5908 30.5517 59.879 30.0862 59.8902C29.6196 59.9015 29.2156 59.5826 29.0935 58.9571C28.9612 58.2772 28.9335 57.5768 28.873 57.0066H28.8741Z" fill="#FAC8AE"/>
<path d="M86.9307 57.2148C87.0445 56.1073 87.1204 55.207 87.2353 54.3107C87.3101 53.7241 87.6567 53.3652 88.11 53.317C88.5397 53.2719 88.9816 53.5888 89.1929 54.1046C89.682 55.2982 89.4933 56.5237 89.3395 57.7429C89.2841 58.1808 89.196 58.6197 89.0729 59.0432C88.9519 59.4636 88.6771 59.7692 88.1982 59.7764C87.7121 59.7836 87.3512 59.5303 87.2435 59.076C87.0845 58.4033 87.0097 57.7111 86.9297 57.2148H86.9307Z" fill="#FAC8AE"/>
<path d="M102.239 56.9749C102.333 56.0437 102.415 55.1106 102.522 54.1815C102.58 53.6882 102.819 53.2842 103.342 53.1971C103.875 53.1078 104.285 53.4288 104.401 53.8903C104.586 54.6224 104.71 55.3905 104.712 56.1442C104.715 56.9554 104.572 57.7716 104.447 58.5776C104.331 59.3262 104.014 59.6605 103.511 59.6769C103.011 59.6944 102.581 59.2985 102.399 58.6535C102.362 58.5223 102.312 58.39 102.309 58.2567C102.298 57.8311 102.305 57.4055 102.305 56.979L102.239 56.9738V56.9749Z" fill="#FAC8AE"/>
<path d="M86.9297 51.8352C86.9297 51.1431 87.7131 50.3883 88.4504 50.3699C89.0267 50.3555 89.4964 50.8221 89.4892 51.4015C89.481 52.1142 88.6453 52.9212 87.9346 52.9038C87.3563 52.8904 86.9307 52.4372 86.9297 51.8342V51.8352Z" fill="#FAC8AE"/>
<path d="M29.8723 52.9089C29.2826 52.9089 28.8376 52.4567 28.8478 51.8691C28.8601 51.1461 29.5974 50.4191 30.3163 50.4191C30.9049 50.4191 31.3397 50.8641 31.3397 51.4661C31.3397 52.1716 30.5891 52.9089 29.8723 52.9079V52.9089Z" fill="#FAC8AE"/>
<path d="M104.694 51.2548C104.702 51.9501 103.964 52.7069 103.259 52.7264C102.679 52.7428 102.219 52.2988 102.213 51.7153C102.206 51.0395 102.986 50.2683 103.678 50.2663C104.25 50.2653 104.686 50.6908 104.693 51.2548H104.694Z" fill="#FAC8AE"/>
<path d="M29.9678 33.5544C29.855 33.6241 29.7596 33.6825 29.6509 33.7492C29.7545 33.8415 29.7822 33.8846 29.8047 33.8825C30.3123 33.8251 30.4159 34.1655 30.4446 34.5511C30.4949 35.2495 30.2652 35.8309 29.654 36.2124C28.9844 36.6307 28.2829 36.7118 27.5661 36.3344C27.0104 36.0421 26.6196 35.151 26.7171 34.4332C26.8196 33.6754 27.4441 33.0068 28.2317 32.8119C28.9433 32.6355 29.455 32.8447 29.9688 33.5554L29.9678 33.5544Z" fill="#9BCDC2"/>
<path d="M21.7475 43.6962C21.6049 43.6695 21.4634 43.6418 21.328 43.6162C21.2193 42.7702 21.5403 42.2421 22.3925 41.835C23.1318 41.4822 24.0568 41.6073 24.5254 42.2513C24.8064 42.6379 24.9418 43.1547 25.0505 43.6336C25.1151 43.9187 24.8905 44.0725 24.5562 44.1371C23.7943 44.2858 23.0324 44.4704 22.3002 44.7268C21.9238 44.858 21.73 44.7832 21.5393 44.4888C21.327 44.1607 21.406 43.9259 21.7475 43.6951V43.6962Z" fill="#9BCDC2"/>
</svg>
