<svg width="36" height="36" viewBox="0 0 36 36" fill="none" xmlns="http://www.w3.org/2000/svg">
<path d="M28.9336 5.37887C28.4985 5.41842 28.0767 5.54586 27.668 5.76559L22.3594 8.57809L15.1875 6.82027L14.7656 6.7148L14.3438 6.92574L11.918 8.33199L10.4766 9.17574L11.8125 10.1953L14.8711 12.5156L11.0391 14.5546L6.92578 12.6914L6.43359 12.4804L5.94141 12.7265L3.97266 13.7812L2.67188 14.4843L3.65625 15.539L9.73828 22.0781L10.3008 22.7461L11.0742 22.3242L16.875 19.2304L15.7148 25.6289L15.3281 27.6679L17.2617 26.8593L20.1445 25.6289L20.5664 25.4531L20.7422 25.0312L24.9258 14.8711L30.832 11.707C32.458 10.8325 33.1128 8.76266 32.2383 7.13668C31.8032 6.32369 31.0605 5.76998 30.2344 5.51949C29.8213 5.39645 29.3687 5.33932 28.9336 5.37887ZM29.1445 7.62887C29.2852 7.62008 29.4302 7.62447 29.5664 7.66402C29.8389 7.74752 30.085 7.91451 30.2344 8.19137C30.5332 8.74947 30.3354 9.40426 29.7773 9.70309L23.4844 13.1132L23.1328 13.289L22.9922 13.6757L18.8086 23.7304L18.3164 23.9414L19.5117 17.2968L19.9336 15.0117L17.8945 16.1015L10.793 19.9336L6.32812 15.082L6.50391 14.9765L10.6172 16.8046L11.1445 17.0507L11.6016 16.7695L28.7227 7.73434C28.8633 7.65963 29.0039 7.63766 29.1445 7.62887ZM15.0469 9.10543L19.3711 10.1601L17.0508 11.3554L14.5195 9.42184L15.0469 9.10543ZM3.375 29.25V31.5H32.625V29.25H3.375Z" fill="#FFB5A0"/>
</svg>
