<svg width="40" height="40" viewBox="0 0 40 40" fill="none" xmlns="http://www.w3.org/2000/svg">
<path d="M10.9626 25.8026C8.60467 27.2066 2.42227 30.0734 6.18777 33.6609C8.02718 35.4133 10.0758 36.6666 12.6514 36.6666H27.3486C29.9242 36.6666 31.9728 35.4133 33.8122 33.6609C37.5777 30.0734 31.3953 27.2066 29.0374 25.8026C23.508 22.5101 16.492 22.5102 10.9626 25.8026Z" stroke="#9DD9D2" stroke-width="1.5" stroke-linecap="round" stroke-linejoin="round"/>
<path d="M27.5 10.8333C27.5 14.9754 24.1421 18.3333 20 18.3333C15.8579 18.3333 12.5 14.9754 12.5 10.8333C12.5 6.69112 15.8579 3.33325 20 3.33325C24.1421 3.33325 27.5 6.69112 27.5 10.8333Z" stroke="#9DD9D2" stroke-width="1.5"/>
</svg>
