<svg width="34" height="34" viewBox="0 0 34 34" fill="none" xmlns="http://www.w3.org/2000/svg">
<path d="M9.13548 21.5022C7.17052 22.6722 2.01852 25.0613 5.15643 28.0508C6.68928 29.5111 8.39647 30.5556 10.5428 30.5556H22.7904C24.9368 30.5556 26.644 29.5111 28.1768 28.0508C31.3147 25.0613 26.1627 22.6722 24.1978 21.5022C19.59 18.7585 13.7433 18.7585 9.13548 21.5022Z" stroke="black" stroke-width="1.5" stroke-linecap="round" stroke-linejoin="round"/>
<path d="M22.9166 9.02777C22.9166 12.4796 20.1184 15.2778 16.6666 15.2778C13.2148 15.2778 10.4166 12.4796 10.4166 9.02777C10.4166 5.57599 13.2148 2.77777 16.6666 2.77777C20.1184 2.77777 22.9166 5.57599 22.9166 9.02777Z" stroke="black" stroke-width="1.5"/>
</svg>
