<svg width="31" height="31" viewBox="0 0 31 31" fill="none" xmlns="http://www.w3.org/2000/svg">
<path fill-rule="evenodd" clip-rule="evenodd" d="M15.1422 27.7614C22.1114 27.7614 27.761 22.1118 27.761 15.1426C27.761 8.17343 22.1114 2.5238 15.1422 2.5238C8.17306 2.5238 2.52344 8.17343 2.52344 15.1426C2.52344 22.1118 8.17306 27.7614 15.1422 27.7614Z" stroke="#FFF2EE"/>
<path fill-rule="evenodd" clip-rule="evenodd" d="M15.1422 26.4995C15.1422 26.4995 20.1898 22.3697 20.1898 15.1426C20.1898 7.91543 15.1422 3.78564 15.1422 3.78564C15.1422 3.78564 10.0947 7.91543 10.0947 15.1426C10.0947 22.3697 15.1422 26.4995 15.1422 26.4995Z" stroke="#FFF2EE"/>
<path d="M3.15438 11.3568H27.1301" stroke="#FFF2EE" stroke-linecap="round"/>
<path d="M3.15438 18.9281H27.1301" stroke="#FFF2EE" stroke-linecap="round"/>
</svg>
