<?xml version="1.0" encoding="UTF-8"?>
<svg version="1.1" xmlns="http://www.w3.org/2000/svg" width="5000" height="2638">
<path d="M0 0 C1650 0 3300 0 5000 0 C5000 870.54 5000 1741.08 5000 2638 C3350 2638 1700 2638 0 2638 C0 1767.46 0 896.92 0 0 Z " fill="#FEFEFE" transform="translate(0,0)"/>
<path d="M0 0 C198.33 0 396.66 0 601 0 C601 347.82 601 695.64 601 1054 C1327.33 1054 2053.66 1054 2802 1054 C2802 1227.91 2802 1401.82 2802 1581 C2075.67 1581 1349.34 1581 601 1581 C601 1928.49 601 2275.98 601 2634 C402.67 2634 204.34 2634 0 2634 C0 2286.51 0 1939.02 0 1581 C-724.35 1581 -1448.7 1581 -2195 1581 C-2195 1407.09 -2195 1233.18 -2195 1054 C-1470.65 1054 -746.3 1054 0 1054 C0 706.18 0 358.36 0 0 Z " fill="#CE1125" transform="translate(2197,0)"/>
<path d="M0 0 C466.29 0 932.58 0 1413 0 C1413 246.84 1413 493.68 1413 748 C1409.00368346 746.40147339 1405.31932112 744.69221908 1401.50390625 742.7265625 C1400.88314713 742.40711166 1400.262388 742.08766083 1399.62281799 741.75852966 C1397.6012867 740.71675499 1395.58177491 739.67114076 1393.5625 738.625 C1392.86549988 738.26485809 1392.16849976 737.90471619 1391.45037842 737.53366089 C1382.08782583 732.69428316 1372.79541218 727.74866298 1363.57055664 722.65087891 C1355.29629124 718.10501377 1346.90246121 713.80230574 1338.5 709.5 C1328.27037946 704.26196904 1318.10471338 698.9427502 1308.04296875 693.38671875 C1300.92401012 689.4686152 1293.72363562 685.72106759 1286.5 682 C1278.35963887 677.80656709 1270.26766804 673.54854098 1262.25 669.125 C1252.74908143 663.88604341 1243.12416065 658.91025533 1233.47131348 653.95953369 C1224.3812727 649.29482804 1215.36990715 644.51843126 1206.42578125 639.578125 C1198.52559911 635.23710911 1190.52014296 631.11331752 1182.5 627 C1172.68576002 621.96644668 1162.9421961 616.83884808 1153.28515625 611.5078125 C1145.75841432 607.37089212 1138.13844107 603.42497368 1130.5 599.5 C1121.983309 595.12374211 1113.50861746 590.69056032 1105.125 586.0625 C1095.66641443 580.84249864 1086.08248945 575.88885671 1076.47076416 570.95925903 C1067.38090761 566.2946443 1058.36972724 561.51833189 1049.42578125 556.578125 C1041.52560017 552.23710969 1033.52015356 548.11329502 1025.5 544 C1015.73212243 538.99035002 1006.03585794 533.88627054 996.42578125 528.578125 C988.52559911 524.23710911 980.52014296 520.11331752 972.5 516 C962.68576002 510.96644668 952.9421961 505.83884808 943.28515625 500.5078125 C935.75841432 496.37089212 928.13844107 492.42497368 920.5 488.5 C911.983309 484.12374211 903.50861746 479.69056032 895.125 475.0625 C885.66641443 469.84249864 876.08248945 464.88885671 866.47076416 459.95925903 C857.38090761 455.2946443 848.36972724 450.51833189 839.42578125 445.578125 C831.52559805 441.23710853 823.52013235 437.11334004 815.5 433 C805.63939252 427.94253928 795.84853437 422.79143275 786.14453125 417.4375 C777.84504921 412.87463469 769.43235832 408.54077581 761.01318359 404.20385742 C754.08049975 400.62346198 747.20528722 396.9591412 740.375 393.1875 C730.46234095 387.71844673 720.40624515 382.54831691 710.3303833 377.3890686 C700.87188283 372.54328763 691.48651553 367.59700173 682.18359375 362.45703125 C674.69182396 358.33487306 667.10489871 354.40759526 659.5 350.5 C651.02454667 346.14509108 642.59129597 341.73366124 634.25 337.125 C625.09126294 332.06760359 615.81141773 327.26782203 606.5 322.5 C596.27039142 317.26194394 586.10471451 311.94275083 576.04296875 306.38671875 C568.92401012 302.4686152 561.72363562 298.72106759 554.5 295 C546.35963887 290.80656709 538.26766804 286.54854098 530.25 282.125 C520.74908143 276.88604341 511.12416065 271.91025533 501.47131348 266.95953369 C492.3812727 262.29482804 483.36990715 257.51843126 474.42578125 252.578125 C466.52559911 248.23710911 458.52014296 244.11331752 450.5 240 C440.68576002 234.96644668 430.9421961 229.83884808 421.28515625 224.5078125 C413.75841432 220.37089212 406.13844107 216.42497368 398.5 212.5 C389.983309 208.12374211 381.50861746 203.69056032 373.125 199.0625 C364.33211698 194.20988636 355.43525469 189.58276822 346.5 185 C336.68577324 179.96641919 326.94219729 174.83884873 317.28515625 169.5078125 C309.75841432 165.37089212 302.13844107 161.42497368 294.5 157.5 C285.983309 153.12374211 277.50861746 148.69056032 269.125 144.0625 C260.33211698 139.20988636 251.43525469 134.58276822 242.5 130 C232.68577324 124.96641919 222.94219729 119.83884873 213.28515625 114.5078125 C205.13800914 110.02989905 196.8791955 105.77782264 188.61114502 101.52944946 C180.76650524 97.49621531 172.97128056 93.39109565 165.25 89.125 C156.09126408 84.06760422 146.81142847 79.26779916 137.5 74.5 C127.31678209 69.28581209 117.19830963 63.9902761 107.18359375 58.45703125 C99.69182187 54.33487191 92.10487513 50.40764432 84.5 46.5 C75.94203593 42.10244209 67.42604338 37.6472767 59 33 C48.08876993 26.98487401 37.02196043 21.28378606 25.9453125 15.58203125 C17.26578911 11.11347201 8.62822885 6.56662174 0 2 C0 1.34 0 0.68 0 0 Z " fill="#00237D" transform="translate(586,0)"/>
<path d="M0 0 C18.58082718 9.29041359 18.58082718 9.29041359 24.4453125 12.296875 C25.13965393 12.65240952 25.83399536 13.00794403 26.54937744 13.37425232 C28.74198817 14.49807339 30.93365398 15.62371503 33.125 16.75 C33.88790344 17.14184479 34.65080688 17.53368958 35.43682861 17.93740845 C45.33699511 23.02675993 55.17417907 28.20595099 64.91650391 33.59277344 C72.37357852 37.70087938 79.9281388 41.60949176 87.5 45.5 C95.97546654 49.85488166 104.40870512 54.26633936 112.75 58.875 C121.90873706 63.93239641 131.18858227 68.73217797 140.5 73.5 C150.72960858 78.73805606 160.89528549 84.05724917 170.95703125 89.61328125 C178.07598988 93.5313848 185.27636438 97.27893241 192.5 101 C200.64036113 105.19343291 208.73233196 109.45145902 216.75 113.875 C226.25157316 119.11431754 235.87713705 124.09050759 245.53070068 129.04147339 C253.7054246 133.23634235 261.83296059 137.4915946 269.875 141.9375 C278.99125046 146.97579415 288.22986982 151.75342238 297.5 156.5 C307.72962054 161.73803096 317.89528662 167.0572498 327.95703125 172.61328125 C335.07598988 176.5313848 342.27636438 180.27893241 349.5 184 C357.64036113 188.19343291 365.73233196 192.45145902 373.75 196.875 C383.25091857 202.11395659 392.87583935 207.08974467 402.52868652 212.04046631 C411.6187273 216.70517196 420.63009285 221.48156874 429.57421875 226.421875 C437.47440089 230.76289089 445.47985704 234.88668248 453.5 239 C463.31423998 244.03355332 473.0578039 249.16115192 482.71484375 254.4921875 C490.24158568 258.62910788 497.86155893 262.57502632 505.5 266.5 C514.016691 270.87625789 522.49138254 275.30943968 530.875 279.9375 C540.33358557 285.15750136 549.91751055 290.11114329 559.52923584 295.04074097 C568.61469838 299.70310083 577.62240715 304.47560479 586.56103516 309.4152832 C595.25799172 314.19578824 604.08805826 318.70896056 612.91897583 323.23510742 C620.96505819 327.36173971 628.94864523 331.55715849 636.78955078 336.06469727 C640.87344842 338.40162528 645.02684931 340.55423067 649.25 342.625 C656.70078929 346.27985574 664.00755366 350.18820479 671.3125 354.125 C680.79059062 359.23223821 690.30360784 364.25651221 699.875 369.1875 C708.87119149 373.82481867 717.7887453 378.57895291 726.65380859 383.46166992 C735.0226702 388.05322632 743.50032096 392.42452449 751.98583984 396.7956543 C758.9188609 400.37619154 765.79439375 404.04068263 772.625 407.8125 C782.53831355 413.28191437 792.59505691 418.45243808 802.67163086 423.61193848 C812.08308647 428.43348978 821.42045113 433.35600361 830.67578125 438.47265625 C838.54090012 442.79905945 846.51342078 446.90402614 854.5 451 C864.26789069 456.0096227 873.96414324 461.11373011 883.57421875 466.421875 C891.47440195 470.76289147 899.47986765 474.88665996 907.5 479 C917.36060748 484.05746072 927.15146563 489.20856725 936.85546875 494.5625 C944.00930245 498.49551407 951.24286536 502.26153776 958.5 506 C966.64035441 510.19344674 974.73233152 514.45145877 982.75 518.875 C992.25091857 524.11395659 1001.87583935 529.08974467 1011.52868652 534.04046631 C1020.6187273 538.70517196 1029.63009285 543.48156874 1038.57421875 548.421875 C1046.47439983 552.76289031 1054.47984644 556.88670498 1062.5 561 C1072.26787757 566.00964998 1081.96414206 571.11372946 1091.57421875 576.421875 C1099.47440089 580.76289089 1107.47985704 584.88668248 1115.5 589 C1125.31423998 594.03355332 1135.0578039 599.16115192 1144.71484375 604.4921875 C1152.24158568 608.62910788 1159.86155893 612.57502632 1167.5 616.5 C1176.016691 620.87625789 1184.49138254 625.30943968 1192.875 629.9375 C1202.33358557 635.15750136 1211.91751055 640.11114329 1221.52923584 645.04074097 C1230.61909239 649.7053557 1239.63027276 654.48166811 1248.57421875 659.421875 C1256.47440089 663.76289089 1264.47985704 667.88668248 1272.5 672 C1282.31423998 677.03355332 1292.0578039 682.16115192 1301.71484375 687.4921875 C1309.24158568 691.62910788 1316.86155893 695.57502632 1324.5 699.5 C1333.01668925 703.87625699 1341.49141818 708.30937709 1349.875 712.9375 C1359.36693626 718.17674141 1368.98636475 723.14571259 1378.63278198 728.0920105 C1389.87063847 733.85785516 1400.98461771 739.81776404 1412 746 C1412 746.33 1412 746.66 1412 747 C1405.58609626 747.81625119 1399.34747444 748.14216343 1392.88613647 748.1241985 C1391.90035216 748.12547658 1390.91456785 748.12675467 1389.89891129 748.12807148 C1386.59305729 748.13113603 1383.287251 748.12707135 1379.98139858 748.12304783 C1377.57819349 748.12378754 1375.17498849 748.12496619 1372.7717838 748.12654433 C1367.52899627 748.12897511 1362.28621858 748.12829067 1357.04343199 748.12488318 C1349.19490944 748.11980212 1341.34639464 748.12051157 1333.49787104 748.12234976 C1320.12172829 748.12531504 1306.74558991 748.12354352 1293.36944771 748.11920547 C1279.81323318 748.11482839 1266.25702092 748.11263277 1252.70080566 748.11310768 C1251.84480044 748.11313637 1250.98879521 748.11316507 1250.10685043 748.11319463 C1245.74212944 748.113351 1241.37740845 748.11354295 1237.01268747 748.11374746 C1205.41464068 748.11515524 1173.8165959 748.11172316 1142.21854973 748.10573006 C1110.92394946 748.09980868 1079.62935005 748.09595518 1048.33474922 748.09487724 C1047.36305086 748.09484283 1046.3913525 748.09480842 1045.39020873 748.09477296 C1036.51531047 748.09445977 1027.6404122 748.09417208 1018.76551394 748.09391499 C996.70298514 748.09327557 974.64045636 748.09231624 952.57792759 748.09113979 C951.57322123 748.09108648 950.56851487 748.09103316 949.53336286 748.09097823 C900.65383338 748.08835637 851.77430447 748.08204867 802.89477539 748.07543945 C785.9313558 748.0731478 768.9679362 748.07087245 752.0045166 748.06866455 C750.95245127 748.0685276 749.90038594 748.06839065 748.81643984 748.06824955 C699.91873661 748.06190678 651.02103328 748.05819108 602.12332974 748.05513173 C598.92423725 748.05493116 595.72514477 748.05472886 592.52605229 748.05452599 C559.1870641 748.05241261 525.8480759 748.05042552 492.5090877 748.04849322 C491.55660359 748.04843801 490.60411949 748.04838279 489.62277224 748.04832591 C487.88969193 748.04822552 486.15661163 748.04812528 484.42353133 748.04802525 C322.94901982 748.03867879 161.47451121 748.01851607 0 748 C0 501.16 0 254.32 0 0 Z " fill="#00237D" transform="translate(3001,1890)"/>
<path d="M0 0 C0 246.84 0 493.68 0 748 C-466.29 748 -932.58 748 -1413 748 C-1413 747.34 -1413 746.68 -1413 746 C-1412.03570068 745.52328857 -1411.07140137 745.04657715 -1410.07788086 744.55541992 C-1400.87414523 739.98909296 -1391.75829089 735.27909362 -1382.69152832 730.44708252 C-1378.990606 728.47482046 -1375.28642423 726.50870244 -1371.58203125 724.54296875 C-1370.84644989 724.15254395 -1370.11086853 723.76211914 -1369.35299683 723.35986328 C-1362.83985971 719.90689246 -1356.29894019 716.50959977 -1349.75 713.125 C-1341.2495381 708.72790386 -1332.83068986 704.2023975 -1324.44628906 699.58837891 C-1316.04306777 694.9824481 -1307.5330953 690.59269984 -1299.01464844 686.20458984 C-1292.08145877 682.62398169 -1285.20576577 678.95940545 -1278.375 675.1875 C-1268.46168645 669.71808563 -1258.40494309 664.54756192 -1248.32836914 659.38806152 C-1238.91691353 654.56651022 -1229.57954887 649.64399639 -1220.32421875 644.52734375 C-1212.45909775 640.20093937 -1204.48655816 636.09601861 -1196.5 632 C-1186.63937922 626.94256694 -1176.84853318 621.7914321 -1167.14453125 616.4375 C-1158.84648308 611.875423 -1150.43523216 607.54235039 -1142.01757812 603.20605469 C-1135.04226958 599.60353162 -1128.12371783 595.91739604 -1121.25 592.125 C-1111.74908143 586.88604341 -1102.12416065 581.91025533 -1092.47131348 576.95953369 C-1084.25468759 572.74303542 -1076.08495077 568.46573912 -1068 564 C-1058.58376405 558.79892278 -1049.04082051 553.86745955 -1039.47021484 548.95898438 C-1031.25395693 544.7426684 -1023.08459115 540.46554048 -1015 536 C-1006.24950137 531.16664416 -997.39399868 526.56149482 -988.5 522 C-978.68576002 516.96644668 -968.9421961 511.83884808 -959.28515625 506.5078125 C-951.13866431 502.03025915 -942.88049394 497.77858401 -934.61315918 493.53045654 C-926.72661281 489.47553539 -918.88913622 485.34858425 -911.125 481.0625 C-901.66641443 475.84249864 -892.08248945 470.88885671 -882.47076416 465.95925903 C-874.25432226 461.74285191 -866.08477096 457.4656398 -858 453 C-848.58376405 447.79892278 -839.04082051 442.86745955 -829.47021484 437.95898438 C-821.25395693 433.7426684 -813.08459115 429.46554048 -805 425 C-796.24950018 420.1666435 -787.39398687 415.56151977 -778.5 411 C-768.63939252 405.94253928 -758.84853437 400.79143275 -749.14453125 395.4375 C-740.84648308 390.875423 -732.43523216 386.54235039 -724.01757812 382.20605469 C-717.04226958 378.60353162 -710.12371783 374.91739604 -703.25 371.125 C-693.74908143 365.88604341 -684.12416065 360.91025533 -674.47131348 355.95953369 C-666.25468759 351.74303542 -658.08495077 347.46573912 -650 343 C-641.24950137 338.16664416 -632.39399868 333.56149482 -623.5 329 C-613.68576002 323.96644668 -603.9421961 318.83884808 -594.28515625 313.5078125 C-586.13866431 309.03025915 -577.88049394 304.77858401 -569.61315918 300.53045654 C-561.72661281 296.47553539 -553.88913622 292.34858425 -546.125 288.0625 C-536.66641443 282.84249864 -527.08248945 277.88885671 -517.47076416 272.95925903 C-509.25432226 268.74285191 -501.08477096 264.4656398 -493 260 C-484.24950137 255.16664416 -475.39399868 250.56149482 -466.5 246 C-456.68576002 240.96644668 -446.9421961 235.83884808 -437.28515625 230.5078125 C-429.13866431 226.03025915 -420.88049394 221.77858401 -412.61315918 217.53045654 C-404.72661281 213.47553539 -396.88913622 209.34858425 -389.125 205.0625 C-379.66641443 199.84249864 -370.08248945 194.88885671 -360.47076416 189.95925903 C-352.25432226 185.74285191 -344.08477096 181.4656398 -336 177 C-326.58376405 171.79892278 -317.04082051 166.86745955 -307.47021484 161.95898438 C-299.25395693 157.7426684 -291.08459115 153.46554048 -283 149 C-274.24950018 144.1666435 -265.39398687 139.56151977 -256.5 135 C-246.63939252 129.94253928 -236.84853437 124.79143275 -227.14453125 119.4375 C-218.84504921 114.87463469 -210.43235832 110.54077581 -202.01318359 106.20385742 C-195.08049975 102.62346198 -188.20528722 98.9591412 -181.375 95.1875 C-171.46234095 89.71844673 -161.40624515 84.54831691 -151.3303833 79.3890686 C-141.87188283 74.54328763 -132.48651553 69.59700173 -123.18359375 64.45703125 C-115.69182292 60.33487248 -108.10488692 56.40761978 -100.5 52.5 C-91.98329568 48.12376958 -83.50861636 43.69055971 -75.125 39.0625 C-65.67340862 33.84635859 -56.09699346 28.89542043 -46.49191284 23.97033691 C-36.95967602 19.07997749 -27.4970306 14.08576886 -18.125 8.89257812 C-2.04846138 0 -2.04846138 0 0 0 Z " fill="#00237D" transform="translate(1999,1890)"/>
<path d="M0 0 C353.49945331 -0.04040148 353.49945331 -0.04040148 488.42611563 -0.04816496 C490.32023202 -0.04827434 492.21434841 -0.04838376 494.10846479 -0.04849322 C495.05819299 -0.0485481 496.00792118 -0.04860297 496.98642902 -0.04865951 C530.54099156 -0.0506011 564.09555411 -0.052608 597.65011665 -0.05472926 C600.8528035 -0.05493115 604.05549035 -0.05513133 607.2581772 -0.05533109 C656.31376057 -0.05839723 705.36934369 -0.06230038 754.42492676 -0.06866455 C755.48028021 -0.06880145 756.53563367 -0.06893835 757.62296753 -0.0690794 C774.63896721 -0.07129184 791.65496689 -0.07357542 808.67096656 -0.07586844 C857.66752995 -0.08246998 906.66409314 -0.0885476 955.66065693 -0.09113979 C956.6677079 -0.09119333 957.67475887 -0.09124686 958.71232654 -0.09130202 C980.8167146 -0.09246764 1002.92110265 -0.09336256 1025.02549072 -0.09400098 C1033.91883721 -0.09426261 1042.81218369 -0.09456323 1051.70553017 -0.09487724 C1052.67888311 -0.09491067 1053.65223606 -0.0949441 1054.65508455 -0.09497854 C1086.04418099 -0.09607592 1117.43327602 -0.10035017 1148.82237189 -0.10628221 C1180.42811043 -0.1122407 1212.0338476 -0.11510098 1243.63958672 -0.11362399 C1248.00226801 -0.11342089 1252.36494931 -0.11325352 1256.72763062 -0.11310768 C1257.58287755 -0.1130778 1258.43812449 -0.11304792 1259.31928801 -0.11301713 C1272.88864841 -0.11263575 1286.45800592 -0.11562737 1300.02736553 -0.12000986 C1313.35422762 -0.12424526 1326.68108592 -0.12494713 1340.00794836 -0.12183181 C1347.83150057 -0.12011107 1355.65504086 -0.12115983 1363.47859169 -0.126217 C1369.27145251 -0.1296595 1375.06430403 -0.12794324 1380.8571649 -0.12413998 C1383.19754212 -0.12342077 1385.53792059 -0.1244087 1387.87829622 -0.12723524 C1391.0379799 -0.13081187 1394.19760071 -0.1283048 1397.35728234 -0.1241985 C1398.27230732 -0.12670737 1399.1873323 -0.12921625 1400.13008531 -0.13180115 C1404.21851289 -0.12034801 1408.01265774 -0.03446401 1412 1 C1409.11060368 3.28509732 1406.19273203 5.04094021 1402.9140625 6.71484375 C1401.91262207 7.22974365 1400.91118164 7.74464355 1399.87939453 8.27514648 C1398.80544434 8.82372314 1397.73149414 9.3722998 1396.625 9.9375 C1388.40147093 14.17241025 1380.22557573 18.47187516 1372.125 22.9375 C1362.83721906 28.04993873 1353.4435035 32.9382078 1344.01904297 37.79321289 C1337.04322849 41.39594835 1330.12419644 45.08233989 1323.25 48.875 C1313.74908143 54.11395659 1304.12416065 59.08974467 1294.47131348 64.04046631 C1286.25468759 68.25696458 1278.08495077 72.53426088 1270 77 C1260.58376405 82.20107722 1251.04082051 87.13254045 1241.47021484 92.04101562 C1233.25395693 96.2573316 1225.08459115 100.53445952 1217 105 C1208.24950137 109.83335584 1199.39399868 114.43850518 1190.5 119 C1180.68576002 124.03355332 1170.9421961 129.16115192 1161.28515625 134.4921875 C1153.13866431 138.96974085 1144.88049394 143.22141599 1136.61315918 147.46954346 C1127.85039283 151.97497904 1119.16656045 156.60168659 1110.54052734 161.36450195 C1101.80848586 166.15920691 1092.94594492 170.69150979 1084.08157349 175.23483276 C1076.03530703 179.36155634 1068.05153306 183.557056 1060.21044922 188.06469727 C1056.12655158 190.40162528 1051.97315069 192.55423067 1047.75 194.625 C1040.29921071 198.27985574 1032.99244634 202.18820479 1025.6875 206.125 C1016.20940974 211.23223801 1006.69640041 216.25652881 997.125 221.1875 C988.17510169 225.80077685 979.30502954 230.53179244 970.48681641 235.39135742 C962.27107337 239.89774824 953.94793728 244.18670856 945.61425781 248.46899414 C937.7273435 252.52409723 929.88949578 256.65121726 922.125 260.9375 C912.66641443 266.15750136 903.08248945 271.11114329 893.47076416 276.04074097 C885.25432226 280.25714809 877.08477096 284.5343602 869 289 C859.58376405 294.20107722 850.04082051 299.13254045 840.47021484 304.04101562 C832.25395693 308.2573316 824.08459115 312.53445952 816 317 C807.24950018 321.8333565 798.39398687 326.43848023 789.5 331 C779.63939252 336.05746072 769.84853437 341.20856725 760.14453125 346.5625 C751.84648308 351.124577 743.43523216 355.45764961 735.01757812 359.79394531 C728.04226958 363.39646838 721.12371783 367.08260396 714.25 370.875 C704.74842684 376.11431754 695.12286295 381.09050759 685.46929932 386.04147339 C677.2945754 390.23634235 669.16703941 394.4915946 661.125 398.9375 C652.00875068 403.97579352 642.77014084 408.75344512 633.5 413.5 C623.31677021 418.71416297 613.1983085 424.00972453 603.18359375 429.54296875 C595.69182187 433.66512809 588.10487513 437.59235568 580.5 441.5 C571.94204193 445.89755482 563.42592511 450.35251664 555 455 C545.95472924 459.98909553 536.8005935 464.74859812 527.6137085 469.4692688 C519.72697816 473.52428092 511.889316 477.65131651 504.125 481.9375 C494.66641443 487.15750136 485.08248945 492.11114329 475.47076416 497.04074097 C467.25432226 501.25714809 459.08477096 505.5343602 451 510 C442.24950137 514.83335584 433.39399868 519.43850518 424.5 524 C414.68576002 529.03355332 404.9421961 534.16115192 395.28515625 539.4921875 C387.13866431 543.96974085 378.88049394 548.22141599 370.61315918 552.46954346 C362.72661281 556.52446461 354.88913622 560.65141575 347.125 564.9375 C337.66641443 570.15750136 328.08248945 575.11114329 318.47076416 580.04074097 C310.25432226 584.25714809 302.08477096 588.5343602 294 593 C285.24950018 597.8333565 276.39398687 602.43848023 267.5 607 C257.63939252 612.05746072 247.84853437 617.20856725 238.14453125 622.5625 C229.84504921 627.12536531 221.43235832 631.45922419 213.01318359 635.79614258 C206.08049975 639.37653802 199.20528722 643.0408588 192.375 646.8125 C182.46234095 652.28155327 172.40624515 657.45168309 162.3303833 662.6109314 C152.87188283 667.45671237 143.48651553 672.40299827 134.18359375 677.54296875 C126.07140621 682.00649622 117.8452285 686.23965614 109.6105957 690.4708252 C101.76613989 694.50396836 93.97110081 698.60900366 86.25 702.875 C77.0912584 707.93239892 67.81137471 712.73208634 58.5 717.5 C47.24227998 723.26500491 36.07600719 729.1600163 24.99609375 735.26171875 C19.75513456 738.14553973 14.47838487 740.95900091 9.1875 743.75 C7.96667725 744.39666626 7.96667725 744.39666626 6.72119141 745.05639648 C1.12193896 748 1.12193896 748 0 748 C0 501.16 0 254.32 0 0 Z " fill="#00237D" transform="translate(3001,0)"/>
<path d="M0 0 C1.38305934 -0.0026216 2.76611573 -0.00788454 4.14915639 -0.015535 C7.9214164 -0.02886234 11.69264164 -0.00507733 15.46476996 0.02513337 C19.54300384 0.051167 23.62118449 0.04226728 27.69947815 0.03771973 C34.75596 0.03458132 41.81210767 0.05332507 48.86850548 0.08714676 C59.07067523 0.13601434 69.27268424 0.15154617 79.47495834 0.15907471 C96.02940228 0.17219002 112.58366833 0.21207488 129.13801575 0.26889038 C145.2141786 0.32400718 161.29029305 0.36645683 177.36653137 0.39193726 C178.35831094 0.3935136 179.35009051 0.39508994 180.37192401 0.39671405 C185.34764245 0.40454456 190.32336124 0.41212674 195.29908025 0.41958547 C236.54459383 0.48173454 277.78989 0.5890257 319.03523254 0.7215271 C319.03523254 12.6015271 319.03523254 24.4815271 319.03523254 36.7215271 C314.31210754 39.1552771 309.58898254 41.5890271 304.72273254 44.0965271 C294.32977711 49.45697331 283.95321342 54.84515732 273.61335754 60.3074646 C265.41824344 64.63526191 257.19312609 68.90602996 248.97468567 73.18930054 C244.16078512 75.69860617 239.34804606 78.21013736 234.53523254 80.7215271 C228.73895063 83.74610365 222.94239925 86.77015795 217.14460754 89.7918396 C208.30796833 94.39820406 199.47472035 99.01039372 190.66023254 103.6590271 C182.22258639 108.10891965 173.75930284 112.50877181 165.29353333 116.90487671 C159.03092736 120.15865694 152.77695862 123.42788272 146.53523254 126.7215271 C138.13818145 131.15249697 129.71481987 135.53202112 121.28865051 139.90731812 C115.06892249 143.1387094 108.85843219 146.38655106 102.66023254 149.6590271 C94.97142988 153.71775046 87.25612451 157.72421999 79.53523254 161.7215271 C71.01694821 166.1318325 62.51008361 170.56186185 54.02644348 175.03842163 C45.025433 179.78648367 35.99912227 184.48596247 26.97468567 189.18930054 C22.16078512 191.69860617 17.34804606 194.21013736 12.53523254 196.7215271 C6.73895063 199.74610365 0.94239925 202.77015795 -4.85539246 205.7918396 C-13.69203167 210.39820406 -22.52527965 215.01039372 -31.33976746 219.6590271 C-39.78030978 224.11044704 -48.24639922 228.51200482 -56.71525574 232.90927124 C-63.63817338 236.50583198 -70.54625899 240.12905494 -77.44352722 243.77450562 C-82.24316659 246.30527961 -87.05792021 248.80553247 -91.88273621 251.28793335 C-94.38935553 252.57808651 -96.89589997 253.86838477 -99.40226746 255.1590271 C-100.0279361 255.48120209 -100.65360474 255.80337708 -101.29823303 256.13531494 C-109.18598598 260.20120774 -117.02171102 264.34477907 -124.77726746 268.6590271 C-130.82861172 272.02423549 -136.91091675 275.25992776 -143.12297058 278.31747437 C-150.55477407 281.98524737 -157.91435816 285.79299826 -165.27726746 289.5965271 C-166.30072769 290.12512329 -166.30072769 290.12512329 -167.34486389 290.66439819 C-175.92357056 295.0969692 -184.4893396 299.5526661 -193.02653503 304.06478882 C-199.49067104 307.47988485 -205.97638226 310.85276374 -212.46476746 314.2215271 C-219.80869735 318.03499784 -227.14617583 321.85964051 -234.46476746 325.7215271 C-242.86037063 330.15173293 -251.28232878 334.53040533 -259.70695496 338.90512085 C-265.96939176 342.15883191 -272.22320232 345.42796764 -278.46476746 348.7215271 C-286.86181855 353.15249697 -295.28518013 357.53202112 -303.71134949 361.90731812 C-309.93107751 365.1387094 -316.14156781 368.38655106 -322.33976746 371.6590271 C-330.02857012 375.71775046 -337.74387549 379.72421999 -345.46476746 383.7215271 C-353.98305179 388.1318325 -362.48991639 392.56186185 -370.97355652 397.03842163 C-379.974567 401.78648367 -389.00087773 406.48596247 -398.02531433 411.18930054 C-402.83921488 413.69860617 -407.65195394 416.21013736 -412.46476746 418.7215271 C-418.26104937 421.74610365 -424.05760075 424.77015795 -429.85539246 427.7918396 C-439.41059963 432.77281308 -448.95902692 437.76565818 -458.48796082 442.79672241 C-463.10612144 445.23041671 -467.73586802 447.64038093 -472.37492371 450.0340271 C-483.19378954 455.61696065 -493.9853061 461.22744715 -504.65226746 467.0965271 C-511.16591954 470.67857362 -517.70362097 474.15700973 -524.3712616 477.44271851 C-531.3178839 480.87329848 -538.20633281 484.41632958 -545.08976746 487.9715271 C-546.03100464 488.45755402 -546.03100464 488.45755402 -546.99125671 488.95339966 C-556.23432762 493.73228167 -565.39370493 498.64649962 -574.51042175 503.66293335 C-580.02595593 506.68934565 -585.5802543 509.59073204 -591.22453308 512.36825562 C-598.62266335 516.01864884 -605.94798343 519.81045464 -613.27726746 523.5965271 C-614.30000259 524.12476074 -614.30000259 524.12476074 -615.34339905 524.66366577 C-624.71247604 529.50480231 -634.06208509 534.38105019 -643.38664246 539.3074646 C-648.65318376 542.08869778 -653.93367307 544.84305307 -659.21476746 547.5965271 C-660.17673035 548.09813354 -661.13869324 548.59973999 -662.12980652 549.11654663 C-666.06024571 551.16564355 -669.99103025 553.21407753 -673.92179871 555.26254272 C-676.85294677 556.7902338 -679.78392657 558.3182468 -682.71476746 559.8465271 C-684.15722839 560.59869507 -684.15722839 560.59869507 -685.62882996 561.36605835 C-691.49832591 564.42875174 -697.35944048 567.50684851 -703.21476746 570.5965271 C-712.1147986 575.29195499 -721.05028543 579.91818879 -729.98625183 584.54476929 C-737.3297626 588.34906407 -744.65902145 592.17876316 -751.97355652 596.03842163 C-760.974567 600.78648367 -770.00087773 605.48596247 -779.02531433 610.18930054 C-783.83921488 612.69860617 -788.65195394 615.21013736 -793.46476746 617.7215271 C-799.26104937 620.74610365 -805.05760075 623.77015795 -810.85539246 626.7918396 C-819.6507361 631.37670862 -828.44248843 635.96766132 -837.21476746 640.5965271 C-846.1147986 645.29195499 -855.05028543 649.91818879 -863.98625183 654.54476929 C-871.3297626 658.34906407 -878.65902145 662.17876316 -885.97355652 666.03842163 C-896.93493781 671.82058559 -907.931705 677.53520855 -918.92179871 683.26254272 C-921.85294677 684.7902338 -924.78392657 686.3182468 -927.71476746 687.8465271 C-929.15722839 688.59869507 -929.15722839 688.59869507 -930.62882996 689.36605835 C-936.49832591 692.42875174 -942.35944048 695.50684851 -948.21476746 698.5965271 C-957.1147986 703.29195499 -966.05028543 707.91818879 -974.98625183 712.54476929 C-982.3297626 716.34906407 -989.65902145 720.17876316 -996.97355652 724.03842163 C-1005.974567 728.78648367 -1015.00087773 733.48596247 -1024.02531433 738.18930054 C-1028.83921488 740.69860617 -1033.65195394 743.21013736 -1038.46476746 745.7215271 C-1044.26104937 748.74610365 -1050.05760075 751.77015795 -1055.85539246 754.7918396 C-1064.69203167 759.39820406 -1073.52527965 764.01039372 -1082.33976746 768.6590271 C-1090.78030978 773.11044704 -1099.24639922 777.51200482 -1107.71525574 781.90927124 C-1113.89244506 785.1184148 -1120.05977653 788.34503896 -1126.21476746 791.5965271 C-1134.90728652 796.18678716 -1143.64039753 800.69768173 -1152.37467957 805.20773315 C-1160.57612556 809.4433033 -1168.76391926 813.70288114 -1176.92570496 818.01449585 C-1183.42420679 821.44488967 -1189.94313256 824.8353501 -1196.46476746 828.2215271 C-1203.76745455 832.01341251 -1211.06321995 835.81721355 -1218.33976746 839.6590271 C-1226.02857064 843.71775073 -1233.74390613 847.72416 -1241.46476746 851.7215271 C-1249.39201711 855.82653244 -1257.3153198 859.93822607 -1265.21476746 864.0965271 C-1265.89088074 864.45230835 -1266.56699402 864.8080896 -1267.26359558 865.1746521 C-1267.93326355 865.52785522 -1268.60293152 865.88105835 -1269.29289246 866.2449646 C-1270.303088 866.76434813 -1270.303088 866.76434813 -1271.33369154 867.29422426 C-1273.29714641 868.35935685 -1275.21949642 869.50091408 -1277.1169849 870.67955732 C-1286.78250232 876.53623239 -1294.45055535 877.86483454 -1305.61245728 877.68356323 C-1307.23821095 877.68706062 -1308.86396013 877.69408136 -1310.4896856 877.70427656 C-1314.91440219 877.72200947 -1319.33754447 877.69038656 -1323.76206076 877.65005207 C-1328.5491588 877.61528548 -1333.33617842 877.62721068 -1338.12336731 877.63327026 C-1346.40323108 877.63745139 -1354.68258788 877.61249609 -1362.96232414 877.56736755 C-1374.93312669 877.50216365 -1386.9036858 877.48149692 -1398.87464667 877.47146362 C-1418.2997638 877.45398385 -1437.72461114 877.4008241 -1457.14958191 877.32504272 C-1476.01154741 877.25153459 -1494.87343946 877.19494445 -1513.73551941 877.16098022 C-1514.89949383 877.15887844 -1516.06346825 877.15677665 -1517.26271462 877.15461117 C-1523.1024265 877.14417036 -1528.9421389 877.13406082 -1534.78185165 877.12411594 C-1583.1763433 877.04127335 -1631.57054217 876.90044813 -1679.96476746 876.7215271 C-1677.1324889 873.71085383 -1674.0316976 872.10953266 -1670.33976746 870.3465271 C-1668.8909117 869.63750538 -1667.44306261 868.9264243 -1665.99601746 868.2137146 C-1665.19679871 867.82022827 -1664.39757996 867.42674194 -1663.57414246 867.02133179 C-1650.80987838 860.66308497 -1638.19717175 853.98983099 -1625.71476746 847.0965271 C-1614.93172698 841.14628434 -1603.96707701 835.56278484 -1592.9997406 829.96289062 C-1583.96569628 825.34791896 -1574.95960744 820.70983688 -1566.08976746 815.7840271 C-1554.33954432 809.26384913 -1542.35264895 803.20155397 -1530.38127136 797.10067749 C-1514.72502756 789.11907273 -1499.18181763 780.93855897 -1483.71476746 772.5965271 C-1471.53740032 766.04387133 -1459.26690445 759.68103477 -1446.9690094 753.35818481 C-1446.02138229 752.8709494 -1446.02138229 752.8709494 -1445.05461121 752.37387085 C-1444.4343808 752.05500916 -1443.81415039 751.73614746 -1443.17512512 751.40762329 C-1437.35094731 748.41082529 -1431.55152314 745.36864422 -1425.76164246 742.3062439 C-1421.62821109 740.12068288 -1417.48713126 737.95117808 -1413.33586121 735.7996521 C-1404.33567823 731.13250471 -1395.3649415 726.44091091 -1386.52726746 721.4715271 C-1380.54328001 718.10874481 -1374.50437122 714.92853343 -1368.34709167 711.89584351 C-1354.47699049 705.05055059 -1340.84146086 697.7234807 -1327.16203308 690.50668335 C-1322.93008048 688.2756121 -1318.69181141 686.05746664 -1314.44523621 683.8543396 C-1305.14766682 679.02851856 -1295.88700527 674.1569525 -1286.71476746 669.0965271 C-1274.73637514 662.49895763 -1262.5560943 656.29965482 -1250.38575745 650.06655884 C-1249.64999481 649.68972961 -1248.91423218 649.31290039 -1248.15617371 648.9246521 C-1247.43193207 648.55378479 -1246.70769043 648.18291748 -1245.96150208 647.80081177 C-1239.08688005 644.27754445 -1232.24843956 640.68829402 -1225.42179871 637.0730896 C-1222.07360836 635.30110081 -1218.71480448 633.55056843 -1215.35148621 631.8074646 C-1206.34596436 627.13793475 -1197.37007725 622.44367855 -1188.52726746 617.4715271 C-1182.58867291 614.1349815 -1176.59810166 610.97537646 -1170.48771667 607.96615601 C-1159.88733069 602.73429437 -1149.43926114 597.199646 -1138.96476746 591.7215271 C-1138.13074402 591.28582397 -1137.29672058 590.85012085 -1136.43742371 590.4012146 C-1128.82105833 586.41964079 -1121.22422515 582.40365967 -1113.65617371 578.3309021 C-1099.16388004 570.53253961 -1084.60515955 562.88322719 -1069.9690094 555.35818481 C-1069.337258 555.03336121 -1068.70550659 554.7085376 -1068.05461121 554.37387085 C-1067.4343808 554.05500916 -1066.81415039 553.73614746 -1066.17512512 553.40762329 C-1060.34803267 550.40932558 -1054.54590466 547.36526091 -1048.75285339 544.30184937 C-1044.66851671 542.14261117 -1040.57746986 539.99745188 -1036.47648621 537.8699646 C-1027.20942942 533.06078713 -1017.97960916 528.20620721 -1008.83976746 523.1590271 C-998.01424413 517.19001125 -987.0088315 511.58412476 -976.00028992 505.96316528 C-966.96607239 501.34810758 -957.95965414 496.71016 -949.08976746 491.7840271 C-939.00607274 486.1855598 -928.73782707 480.96092931 -918.46476746 475.7215271 C-907.31788544 470.03640069 -896.21548404 464.31206703 -885.2721405 458.24154663 C-874.43974817 452.26873087 -863.39230952 446.7037445 -852.38356018 441.06546021 C-851.64852264 440.68899353 -850.91348511 440.31252686 -850.15617371 439.9246521 C-849.43201263 439.55382507 -848.70785156 439.18299805 -847.96174622 438.80093384 C-841.08602822 435.27711474 -834.24680808 431.68661049 -827.41789246 428.0730896 C-822.11238458 425.26585318 -816.78799223 422.4949756 -811.46476746 419.7215271 C-793.01425576 410.10436475 -793.01425576 410.10436475 -774.64836121 400.32699585 C-760.15863013 392.52945916 -745.60272971 384.88197791 -730.9690094 377.35818481 C-730.337258 377.03336121 -729.70550659 376.7085376 -729.05461121 376.37387085 C-728.4343808 376.05500916 -727.81415039 375.73614746 -727.17512512 375.40762329 C-721.35094731 372.41082529 -715.55152314 369.36864422 -709.76164246 366.3062439 C-705.62821109 364.12068288 -701.48713126 361.95117808 -697.33586121 359.7996521 C-688.3356744 355.13250273 -679.36499463 350.44082068 -670.52726746 345.4715271 C-664.586323 342.13366123 -658.59240793 338.97507679 -652.48112488 335.96176147 C-638.34994651 328.98103136 -624.38940261 321.64770966 -610.58976746 314.0340271 C-598.65414919 307.45495235 -586.51451258 301.27837577 -574.38548279 295.06642151 C-573.64981079 294.6896376 -572.91413879 294.3128537 -572.15617371 293.9246521 C-571.43194214 293.55378983 -570.70771057 293.18292755 -569.96153259 292.80082703 C-563.08172115 289.27490135 -556.23823256 285.68270685 -549.40617371 282.0652771 C-546.1094242 280.32060039 -542.80305329 278.59536767 -539.49211121 276.8777771 C-530.21970819 272.0662406 -520.984713 267.20902564 -511.83976746 262.1590271 C-501.01424413 256.19001125 -490.0088315 250.58412476 -479.00028992 244.96316528 C-469.96606191 240.34810222 -460.95978686 235.70993652 -452.08976746 230.7840271 C-440.33954432 224.26384913 -428.35264895 218.20155397 -416.38127136 212.10067749 C-400.72502756 204.11907273 -385.18181763 195.93855897 -369.71476746 187.5965271 C-357.53740032 181.04387133 -345.26690445 174.68103477 -332.9690094 168.35818481 C-332.337258 168.03336121 -331.70550659 167.7085376 -331.05461121 167.37387085 C-330.12426559 166.89557831 -330.12426559 166.89557831 -329.17512512 166.40762329 C-323.34803267 163.40932558 -317.54590466 160.36526091 -311.75285339 157.30184937 C-307.66851671 155.14261117 -303.57746986 152.99745188 -299.47648621 150.8699646 C-290.16822143 146.03943193 -280.89721486 141.16258524 -271.71476746 136.0965271 C-259.73637514 129.49895763 -247.5560943 123.29965482 -235.38575745 117.06655884 C-234.64999481 116.68972961 -233.91423218 116.31290039 -233.15617371 115.9246521 C-232.43193207 115.55378479 -231.70769043 115.18291748 -230.96150208 114.80081177 C-224.08170126 111.2748903 -217.23822251 107.68270153 -210.40617371 104.0652771 C-207.1094242 102.32060039 -203.80305329 100.59536767 -200.49211121 98.8777771 C-191.17849963 94.04488683 -181.90231971 89.16540165 -172.71476746 84.0965271 C-160.73637514 77.49895763 -148.5560943 71.29965482 -136.38575745 65.06655884 C-135.64999481 64.68972961 -134.91423218 64.31290039 -134.15617371 63.9246521 C-133.43193207 63.55378479 -132.70769043 63.18291748 -131.96150208 62.80081177 C-125.08688005 59.27754445 -118.24843956 55.68829402 -111.42179871 52.0730896 C-108.07360836 50.30110081 -104.71480448 48.55056843 -101.35148621 46.8074646 C-92.34596436 42.13793475 -83.37007725 37.44367855 -74.52726746 32.4715271 C-68.59442102 29.13821103 -62.60994834 25.98091733 -56.5052948 22.97494507 C-50.00907076 19.76899566 -43.57928889 16.43872937 -37.15226746 13.0965271 C-36.11449158 12.55794067 -35.0767157 12.01935425 -34.00749207 11.46444702 C-32.99694763 10.93826782 -31.9864032 10.41208862 -30.94523621 9.8699646 C-30.05731384 9.40767456 -29.16939148 8.94538452 -28.25456238 8.46908569 C-25.09194107 6.851806 -25.09194107 6.851806 -22.72819728 5.26373327 C-15.06688311 0.52356915 -8.88586271 -0.12289742 0 0 Z " fill="#CE1125" transform="translate(1681.9647674560547,1756.2784729003906)"/>
<path d="M0 0 C1.56215334 -0.00305902 3.12430312 -0.0092 4.68643397 -0.01812416 C8.94452348 -0.03366336 13.20136388 -0.00593704 17.45929444 0.02932227 C22.06374148 0.05970876 26.66812486 0.04931086 31.27264404 0.04400635 C39.23874249 0.04034574 47.20443788 0.06220426 55.17043495 0.10167122 C66.68768742 0.15869531 78.20474609 0.17680507 89.72212442 0.18558716 C108.41070039 0.2008865 127.0990618 0.24741377 145.78752136 0.31370544 C163.93562246 0.3780132 182.08366518 0.42753542 200.2318573 0.45726013 C201.35155223 0.4590992 202.47124716 0.46093826 203.62487224 0.46283305 C209.24236442 0.47196868 214.85985701 0.48081455 220.47734988 0.48951638 C267.03914089 0.56201784 313.60069795 0.68525244 360.16227722 0.84178162 C357.23475901 3.08256136 354.36365424 4.87830818 351.07633972 6.55662537 C350.07489929 7.07152527 349.07345886 7.58642517 348.04167175 8.1169281 C346.96772156 8.66550476 345.89377136 9.21408142 344.78727722 9.77928162 C336.56374816 14.01419187 328.38785296 18.31365678 320.28727722 22.77928162 C311.00093013 27.89093109 301.60864575 32.77839963 292.18571472 37.63279724 C285.16727005 41.25766441 278.20490049 44.96585185 271.28727722 48.77928162 C262.81905028 53.44621558 254.26143756 57.92278804 245.66227722 62.34178162 C236.12558505 67.24266348 226.65959326 72.24927957 217.26774597 77.42381287 C209.40054156 81.74556139 201.43933559 85.87447364 193.46452332 89.99339294 C186.77161929 93.45945317 180.13732694 97.01490994 173.53727722 100.65428162 C163.99535118 105.91150232 154.33070596 110.90859889 144.63816833 115.87995911 C135.45388958 120.59330639 126.34618776 125.41703787 117.30680847 130.40428162 C110.15297439 134.33729589 102.91940588 138.10330705 95.66227722 141.84178162 C87.48074122 146.0565993 79.34715972 150.3361666 71.28727722 154.77928162 C62.81905028 159.44621558 54.26143756 163.92278804 45.66227722 168.34178162 C36.12558505 173.24266348 26.65959326 178.24927957 17.26774597 183.42381287 C9.40197587 187.74477347 1.44220149 191.87288495 -6.53108215 195.99119568 C-13.26658964 199.47944894 -19.94430723 203.0565246 -26.58772278 206.71678162 C-35.71614705 211.74344697 -44.95121642 216.54595471 -54.21888733 221.30848694 C-63.08067314 225.8651403 -71.86475166 230.54269576 -80.59162903 235.35350037 C-88.92323493 239.92915471 -97.36571294 244.28037975 -105.81526184 248.63328552 C-112.83336915 252.25801131 -119.79541863 255.96602777 -126.71272278 259.77928162 C-135.79892225 264.7867871 -144.99288188 269.56739581 -154.21943665 274.3087616 C-163.08103825 278.86532434 -171.86493154 283.54279491 -180.59162903 288.35350037 C-188.92323493 292.92915471 -197.36571294 297.28037975 -205.81526184 301.63328552 C-212.83336915 305.25801131 -219.79541863 308.96602777 -226.71272278 312.77928162 C-235.79892225 317.7867871 -244.99288188 322.56739581 -254.21943665 327.3087616 C-263.08103825 331.86532434 -271.86493154 336.54279491 -280.59162903 341.35350037 C-288.92323493 345.92915471 -297.36571294 350.28037975 -305.81526184 354.63328552 C-312.83336915 358.25801131 -319.79541863 361.96602777 -326.71272278 365.77928162 C-335.18094972 370.44621558 -343.73856244 374.92278804 -352.33772278 379.34178162 C-361.87441495 384.24266348 -371.34040674 389.24927957 -380.73225403 394.42381287 C-388.59945844 398.74556139 -396.56066441 402.87447364 -404.53547668 406.99339294 C-411.22838071 410.45945317 -417.86267306 414.01490994 -424.46272278 417.65428162 C-434.00399412 422.9111416 -443.66799685 427.90783496 -453.3598175 432.87895203 C-462.59113107 437.61658144 -471.74689752 442.46392343 -480.83381653 447.47459412 C-488.66614699 451.78179224 -496.59453292 455.89197836 -504.53596497 459.99363708 C-511.22869955 463.45962798 -517.86283263 467.01499793 -524.46272278 470.65428162 C-534.00399412 475.9111416 -543.66799685 480.90783496 -553.3598175 485.87895203 C-562.59113107 490.61658144 -571.74689752 495.46392343 -580.83381653 500.47459412 C-587.61468448 504.20356621 -594.46223709 507.79065468 -601.33772278 511.34178162 C-609.14205268 515.37280571 -616.89427202 519.47799708 -624.58772278 523.71678162 C-633.71614705 528.74344697 -642.95121642 533.54595471 -652.21888733 538.30848694 C-661.08067314 542.8651403 -669.86475166 547.54269576 -678.59162903 552.35350037 C-686.92323493 556.92915471 -695.36571294 561.28037975 -703.81526184 565.63328552 C-710.83336915 569.25801131 -717.79541863 572.96602777 -724.71272278 576.77928162 C-733.79892225 581.7867871 -742.99288188 586.56739581 -752.21943665 591.3087616 C-761.08103825 595.86532434 -769.86493154 600.54279491 -778.59162903 605.35350037 C-786.92323493 609.92915471 -795.36571294 614.28037975 -803.81526184 618.63328552 C-810.83336915 622.25801131 -817.79541863 625.96602777 -824.71272278 629.77928162 C-833.18094972 634.44621558 -841.73856244 638.92278804 -850.33772278 643.34178162 C-859.87441495 648.24266348 -869.34040674 653.24927957 -878.73225403 658.42381287 C-886.59802413 662.74477347 -894.55779851 666.87288495 -902.53108215 670.99119568 C-909.26658964 674.47944894 -915.94430723 678.0565246 -922.58772278 681.71678162 C-931.71614705 686.74344697 -940.95121642 691.54595471 -950.21888733 696.30848694 C-959.07774889 700.86363668 -967.85946219 705.53873035 -976.58283997 710.34910583 C-984.99921882 714.97238351 -993.53084915 719.36331648 -1002.06794739 723.75852966 C-1009.35985073 727.52417101 -1016.55919969 731.41832597 -1023.70832825 735.44700623 C-1028.15160825 737.93911566 -1032.63869614 740.28706485 -1037.21272278 742.52928162 C-1045.32724173 746.50837658 -1053.27384427 750.79321389 -1061.2303009 755.07713318 C-1069.36075541 759.45407115 -1077.51425441 763.78063114 -1085.71272278 768.02928162 C-1093.05489973 771.8368053 -1100.34074453 775.7311404 -1107.58772278 779.71678162 C-1116.91675931 784.84682403 -1126.34973712 789.75694703 -1135.813797 794.6325531 C-1142.83241036 798.25749096 -1149.79493995 801.96576389 -1156.71272278 805.77928162 C-1165.79957724 810.78714808 -1174.99417381 815.56816872 -1184.22145081 820.30976868 C-1192.1502747 824.38656212 -1200.03038 828.53548941 -1207.83772278 832.84178162 C-1216.26367269 837.48927865 -1224.78008323 841.94357582 -1233.33772278 846.34178162 C-1242.03392818 850.81323124 -1250.69986608 855.3285875 -1259.27522278 860.02928162 C-1260.39925603 860.62953395 -1260.39925603 860.62953395 -1261.54599702 861.2419126 C-1266.00397156 863.64711823 -1270.31310087 866.10824159 -1274.48374367 868.98651505 C-1290.23016125 879.40121083 -1305.31834316 879.52000682 -1323.47395492 879.23456907 C-1327.67944871 879.18201828 -1331.88476944 879.20033432 -1336.09049988 879.20939636 C-1343.35127308 879.21564361 -1350.61073747 879.17847489 -1357.87118149 879.1105423 C-1368.36790784 879.01239404 -1378.864011 878.98170227 -1389.36114641 878.9666864 C-1406.39780398 878.94051933 -1423.43376624 878.86092543 -1440.470047 878.74705505 C-1457.00451719 878.63665472 -1473.53879753 878.551838 -1490.07356262 878.5009613 C-1491.60618247 878.49623228 -1491.60618247 878.49623228 -1493.16976433 878.49140772 C-1498.2963297 878.47574558 -1503.4228964 878.46058149 -1508.54946399 878.44566488 C-1550.97938947 878.32156526 -1593.40846514 878.10713684 -1635.83772278 877.84178162 C-1635.83772278 867.61178162 -1635.83772278 857.38178162 -1635.83772278 846.84178162 C-1632.92959778 845.39803162 -1630.02147278 843.95428162 -1627.02522278 842.46678162 C-1619.41326332 838.67076356 -1611.85544205 834.78553565 -1604.3384552 830.80516052 C-1597.68867707 827.28408974 -1591.01627106 823.80794666 -1584.33772278 820.34178162 C-1577.03496276 816.55003787 -1569.73926932 812.74609465 -1562.46272278 808.90428162 C-1554.77392011 804.84555826 -1547.05861474 800.83908872 -1539.33772278 796.84178162 C-1530.81943844 792.43147622 -1522.31257384 788.00144687 -1513.82893372 783.52488708 C-1504.8221275 778.77376777 -1495.78989658 774.07148595 -1486.75959778 769.36521912 C-1483.9099979 767.87946517 -1481.06120544 766.39217619 -1478.21272278 764.90428162 C-1476.33772947 763.92510213 -1474.46272944 762.94593552 -1472.58772278 761.96678162 C-1471.65033264 761.477099 -1470.7129425 760.98741638 -1469.74714661 760.4828949 C-1464.55851109 757.7748278 -1459.36396914 755.0787295 -1454.16194153 752.39646912 C-1443.55453431 746.92335788 -1432.97813469 741.41796644 -1422.52522278 735.65428162 C-1414.40271616 731.17722805 -1406.18112993 726.95359022 -1397.86897278 722.84056091 C-1390.47547 719.17869695 -1383.1707505 715.36853815 -1375.88069153 711.50584412 C-1370.05027021 708.41797995 -1364.19366788 705.38088147 -1358.33772278 702.34178162 C-1350.99371953 698.52845342 -1343.65631344 694.70366769 -1336.33772278 690.84178162 C-1327.94067168 686.41081175 -1319.5173101 682.03128759 -1311.09114075 677.6559906 C-1304.87141272 674.42459931 -1298.66092242 671.17675765 -1292.46272278 667.90428162 C-1284.77392011 663.84555826 -1277.05861474 659.83908872 -1269.33772278 655.84178162 C-1260.81943844 651.43147622 -1252.31257384 647.00144687 -1243.82893372 642.52488708 C-1232.86755242 636.74272312 -1221.87078523 631.02810016 -1210.88069153 625.30076599 C-1207.94954347 623.77307492 -1205.01856366 622.24506192 -1202.08772278 620.71678162 C-1200.64526184 619.96461365 -1200.64526184 619.96461365 -1199.17366028 619.19725037 C-1193.30416432 616.13455697 -1187.44304976 613.05646021 -1181.58772278 609.96678162 C-1172.68769163 605.27135372 -1163.75220481 600.64511993 -1154.8162384 596.01853943 C-1147.47272763 592.21424465 -1140.14346879 588.38454556 -1132.82893372 584.52488708 C-1123.82792323 579.77682504 -1114.8016125 575.07734625 -1105.7771759 570.37400818 C-1100.96327535 567.86470254 -1096.1505363 565.35317136 -1091.33772278 562.84178162 C-1085.54144086 559.81720506 -1079.74488948 556.79315076 -1073.94709778 553.77146912 C-1065.15175414 549.18660009 -1056.3600018 544.5956474 -1047.58772278 539.96678162 C-1038.68769163 535.27135372 -1029.75220481 530.64511993 -1020.8162384 526.01853943 C-1013.47272763 522.21424465 -1006.14346879 518.38454556 -998.82893372 514.52488708 C-989.82502536 509.77529641 -980.79575454 505.0744161 -971.76838684 500.36961365 C-968.89257634 498.87037822 -966.01737184 497.36998801 -963.14241028 495.86912537 C-953.12919109 490.64199064 -943.11134674 485.42393828 -933.08772278 480.21678162 C-925.86859221 476.46618325 -918.65719147 472.70197134 -911.46272278 468.90428162 C-903.77388124 464.84563104 -896.05861549 460.83908911 -888.33772278 456.84178162 C-879.81943844 452.43147622 -871.31257384 448.00144687 -862.82893372 443.52488708 C-853.82792323 438.77682504 -844.8016125 434.07734625 -835.7771759 429.37400818 C-830.96327535 426.86470254 -826.1505363 424.35317136 -821.33772278 421.84178162 C-815.54144086 418.81720506 -809.74488948 415.79315076 -803.94709778 412.77146912 C-795.11045857 408.16510465 -786.27721058 403.552915 -777.46272278 398.90428162 C-769.02362854 394.45362537 -760.55894216 390.0529202 -752.09162903 385.65623474 C-745.8717319 382.42477415 -739.66108335 379.17684262 -733.46272278 375.90428162 C-725.77392011 371.84555826 -718.05861474 367.83908872 -710.33772278 363.84178162 C-701.81943844 359.43147622 -693.31257384 355.00144687 -684.82893372 350.52488708 C-675.82792323 345.77682504 -666.8016125 341.07734625 -657.7771759 336.37400818 C-652.96327535 333.86470254 -648.1505363 331.35317136 -643.33772278 328.84178162 C-637.54144086 325.81720506 -631.74488948 322.79315076 -625.94709778 319.77146912 C-617.15175414 315.18660009 -608.3600018 310.5956474 -599.58772278 305.96678162 C-590.68769163 301.27135372 -581.75220481 296.64511993 -572.8162384 292.01853943 C-565.47272763 288.21424465 -558.14346879 284.38454556 -550.82893372 280.52488708 C-541.82792323 275.77682504 -532.8016125 271.07734625 -523.7771759 266.37400818 C-518.96327535 263.86470254 -514.1505363 261.35317136 -509.33772278 258.84178162 C-503.54144086 255.81720506 -497.74488948 252.79315076 -491.94709778 249.77146912 C-483.11045857 245.16510465 -474.27721058 240.552915 -465.46272278 235.90428162 C-457.02218046 231.45286167 -448.55609102 227.0513039 -440.0872345 222.65403748 C-433.91004518 219.44489392 -427.7427137 216.21826975 -421.58772278 212.96678162 C-413.5287963 208.7111029 -405.43535991 204.52313192 -397.33772278 200.34178162 C-388.44997726 195.75233396 -379.57305625 191.14427201 -370.72737122 186.47410583 C-361.76124249 181.74100564 -352.76806097 177.05985993 -343.7771759 172.37400818 C-338.96327535 169.86470254 -334.1505363 167.35317136 -329.33772278 164.84178162 C-323.54144086 161.81720506 -317.74488948 158.79315076 -311.94709778 155.77146912 C-303.15175414 151.18660009 -294.3600018 146.5956474 -285.58772278 141.96678162 C-276.68769163 137.27135372 -267.75220481 132.64511993 -258.8162384 128.01853943 C-251.47272763 124.21424465 -244.14346879 120.38454556 -236.82893372 116.52488708 C-227.82792323 111.77682504 -218.8016125 107.07734625 -209.7771759 102.37400818 C-204.96327535 99.86470254 -200.1505363 97.35317136 -195.33772278 94.84178162 C-189.54144086 91.81720506 -183.74488948 88.79315076 -177.94709778 85.77146912 C-169.11045857 81.16510465 -160.27721058 76.552915 -151.46272278 71.90428162 C-143.02362854 67.45362537 -134.55894216 63.0529202 -126.09162903 58.65623474 C-119.8717319 55.42477415 -113.66108335 52.17684262 -107.46272278 48.90428162 C-99.77392011 44.84555826 -92.05861474 40.83908872 -84.33772278 36.84178162 C-75.82671723 32.43524478 -67.32635346 28.01041364 -58.85090637 23.53587341 C-51.64553986 19.73351774 -44.4203517 15.96945381 -37.19026184 12.21434021 C-36.29275208 11.74721619 -35.39524231 11.28009216 -34.47053528 10.79881287 C-33.60593459 10.35662165 -32.7413339 9.91443043 -31.85053319 9.45883948 C-29.86219298 8.39164283 -27.90906871 7.2557158 -26.00068837 6.05135292 C-17.29881406 0.75348562 -9.91313557 -0.14604773 0 0 Z " fill="#CE1125" transform="translate(4637.83772277832,0.1582183837890625)"/>
<path d="M0 0 C0 189.09 0 378.18 0 573 C-359.37 573 -718.74 573 -1089 573 C-1085.93942816 569.93942816 -1082.95675496 568.24953136 -1079.15625 566.33984375 C-1078.47974899 565.99400742 -1077.80324799 565.64817108 -1077.10624695 565.29185486 C-1075.65833147 564.55245483 -1074.2090828 563.81566076 -1072.75863647 563.08123779 C-1070.48002506 561.92738501 -1068.20499523 560.76674563 -1065.9309082 559.60400391 C-1062.94392622 558.07685585 -1059.95598699 556.55161121 -1056.96728516 555.02783203 C-1052.35753522 552.67475664 -1047.76495903 550.29029762 -1043.1875 547.875 C-1042.47368164 547.49867432 -1041.75986328 547.12234863 -1041.02441406 546.73461914 C-1036.58023138 544.38374639 -1032.15001581 542.00738826 -1027.72265625 539.625 C-1025.39856996 538.37475278 -1023.07440409 537.12465605 -1020.75 535.875 C-1020.16391968 535.55985443 -1019.57783936 535.24470886 -1018.97399902 534.92001343 C-1009.34407913 529.74647164 -999.65816223 524.68825861 -989.9375 519.6875 C-988.9445845 519.17665359 -988.9445845 519.17665359 -987.93161011 518.65548706 C-985.350391 517.32766 -982.7691 515.99997279 -980.18769836 514.67250061 C-969.95467524 509.407486 -959.78026916 504.03570898 -949.64453125 498.5859375 C-947.30476927 497.32797252 -944.96496279 496.0700913 -942.625 494.8125 C-941.74131744 494.33750061 -941.74131744 494.33750061 -940.83978271 493.85290527 C-931.58186714 488.88035572 -922.2779812 484.00304174 -912.9375 479.1875 C-912.32272797 478.87052155 -911.70795593 478.55354309 -911.07455444 478.22695923 C-909.25808639 477.29053185 -907.44155818 476.35422129 -905.625 475.41796875 C-894.93667077 469.90906603 -884.29574334 464.31527671 -873.70703125 458.6171875 C-871.38814423 457.36956143 -869.06919494 456.12205337 -866.75 454.875 C-866.16428223 454.56003571 -865.57856445 454.24507141 -864.97509766 453.92056274 C-855.3448076 448.74684659 -845.65852548 443.68844548 -835.9375 438.6875 C-835.27555634 438.34693573 -834.61361267 438.00637146 -833.93161011 437.65548706 C-831.350391 436.32766 -828.7691 434.99997279 -826.18769836 433.67250061 C-815.97797647 428.41947476 -805.8256633 423.06190027 -795.71484375 417.62109375 C-793.3933571 416.3721571 -791.07179951 415.12335471 -788.75 413.875 C-788.16410095 413.55994507 -787.5782019 413.24489014 -786.97454834 412.92028809 C-777.34444336 407.74665911 -767.65834386 402.68835205 -757.9375 397.6875 C-757.27555634 397.34693573 -756.61361267 397.00637146 -755.93161011 396.65548706 C-753.350391 395.32766 -750.7691 393.99997279 -748.18769836 392.67250061 C-737.95467524 387.407486 -727.78026916 382.03570898 -717.64453125 376.5859375 C-715.30476927 375.32797252 -712.96496279 374.0700913 -710.625 372.8125 C-709.74131744 372.33750061 -709.74131744 372.33750061 -708.83978271 371.85290527 C-699.58186714 366.88035572 -690.2779812 362.00304174 -680.9375 357.1875 C-680.32272797 356.87052155 -679.70795593 356.55354309 -679.07455444 356.22695923 C-677.25808639 355.29053185 -675.44155818 354.35422129 -673.625 353.41796875 C-662.91337323 347.89705817 -652.25044076 342.28892264 -641.63671875 336.58203125 C-639.29955639 335.32537686 -636.96235815 334.06879009 -634.625 332.8125 C-634.03605957 332.49592438 -633.44711914 332.17934875 -632.84033203 331.85317993 C-623.5822316 326.88054278 -614.27816274 322.00313533 -604.9375 317.1875 C-604.32272797 316.87052155 -603.70795593 316.55354309 -603.07455444 316.22695923 C-601.25808639 315.29053185 -599.44155818 314.35422129 -597.625 313.41796875 C-586.93667077 307.90906603 -576.29574334 302.31527671 -565.70703125 296.6171875 C-563.38814423 295.36956143 -561.06919494 294.12205337 -558.75 292.875 C-557.87142334 292.40255356 -557.87142334 292.40255356 -556.97509766 291.92056274 C-547.3448076 286.74684659 -537.65852548 281.68844548 -527.9375 276.6875 C-527.27555634 276.34693573 -526.61361267 276.00637146 -525.93161011 275.65548706 C-523.350391 274.32766 -520.7691 272.99997279 -518.18769836 271.67250061 C-507.95467524 266.407486 -497.78026916 261.03570898 -487.64453125 255.5859375 C-485.30476927 254.32797252 -482.96496279 253.0700913 -480.625 251.8125 C-480.0358783 251.49583374 -479.44675659 251.17916748 -478.83978271 250.85290527 C-469.58186932 245.88035689 -460.27803222 241.00293947 -450.9375 236.1875 C-450.32073395 235.86952454 -449.7039679 235.55154907 -449.06851196 235.22393799 C-447.24623786 234.28462639 -445.4239113 233.34541667 -443.6015625 232.40625 C-433.11517845 227.00156944 -422.6883802 221.48604852 -412.26559448 215.96000671 C-408.63559561 214.03546172 -405.00535781 212.11136781 -401.375 210.1875 C-400.63809937 209.79694427 -399.90119873 209.40638855 -399.14196777 209.0039978 C-387.63012611 202.90431052 -376.08820413 196.86602366 -364.5234375 190.8671875 C-354.20928332 185.51687514 -343.92324585 180.11565392 -333.69140625 174.609375 C-321.15847871 167.86535544 -308.59346945 161.19831652 -295.9375 154.6875 C-295.27555634 154.34693573 -294.61361267 154.00637146 -293.93161011 153.65548706 C-291.350391 152.32766 -288.7691 150.99997279 -286.18769836 149.67250061 C-275.97797647 144.41947476 -265.8256633 139.06190027 -255.71484375 133.62109375 C-253.39333059 132.37220673 -251.07174155 131.12346225 -248.75 129.875 C-247.86965591 129.40142059 -247.86965591 129.40142059 -246.9715271 128.91827393 C-236.74929279 123.42389483 -226.45200668 118.08485975 -216.12670898 112.78723145 C-208.10861382 108.67085581 -200.13796862 104.48715356 -192.25 100.125 C-182.70221447 94.84822964 -173.02002503 89.84931066 -163.3125 84.875 C-162.54449066 84.48140289 -161.77648132 84.08780579 -160.98519897 83.68228149 C-157.98165023 82.14320644 -154.97800978 80.60431056 -151.97419739 79.06575012 C-141.49988301 73.69793299 -131.09481225 68.20590278 -120.73046875 62.62890625 C-118.40374587 61.37741764 -116.07692809 60.12610688 -113.75 58.875 C-113.16407074 58.55976379 -112.57814148 58.24452759 -111.97445679 57.91973877 C-101.66955487 52.37987026 -91.28662815 47.0011357 -80.87631226 41.66253662 C-72.57690678 37.40362612 -64.3147861 33.09876729 -56.22802734 28.4440918 C-51.75087215 25.88803664 -47.16905248 23.5700389 -42.55078125 21.28125 C-36.82152922 18.44082169 -31.14455838 15.51993671 -25.5078125 12.5 C-24.81531906 12.12919312 -24.12282562 11.75838623 -23.40934753 11.37634277 C-20.58575503 9.86206075 -17.76391843 8.34456112 -14.94384766 6.82373047 C-12.84206241 5.69141904 -10.73763965 4.56414404 -8.6328125 3.4375 C-7.67364426 2.91736328 -7.67364426 2.91736328 -6.69509888 2.38671875 C-2.22664968 0 -2.22664968 0 0 0 Z " fill="#00237D" transform="translate(5000,307)"/>
<path d="M0 0 C359.37 0 718.74 0 1089 0 C1085.86971415 2.34771439 1083.0603393 4.14728088 1079.64453125 5.9765625 C1078.56381348 6.55623779 1077.4830957 7.13591309 1076.36962891 7.7331543 C1075.1840316 8.36398069 1073.99831848 8.99458946 1072.8125 9.625 C1071.57209777 10.28750673 1070.33170074 10.95002322 1069.09130859 11.61254883 C1058.777644 17.10798826 1048.38865746 22.45412938 1037.98788452 27.78231812 C1028.78260541 32.49991319 1019.65483097 37.32351743 1010.60400391 42.33276367 C1001.23242208 47.48530499 991.69908962 52.319473 982.17773438 57.18725586 C973.43053747 61.66159866 964.71855924 66.17235104 956.125 70.9375 C946.36333058 76.34869313 936.43902178 81.42508233 926.5 86.5 C915.67481119 92.02746761 904.90220947 97.60980676 894.26831055 103.49951172 C886.03274525 108.03659244 877.67713024 112.33233156 869.3125 116.625 C868.2304277 117.1804248 868.2304277 117.1804248 867.12649536 117.74707031 C864.30384111 119.19573897 861.481084 120.64420686 858.65812683 122.09228516 C848.28948326 127.41370675 837.98553035 132.85248699 827.72265625 138.375 C825.39856996 139.62524722 823.07440409 140.87534395 820.75 142.125 C820.16391968 142.44014557 819.57783936 142.75529114 818.97399902 143.07998657 C809.34407913 148.25352836 799.65816223 153.31174139 789.9375 158.3125 C789.27555634 158.65306427 788.61361267 158.99362854 787.93161011 159.34451294 C785.350391 160.67234 782.7691 162.00002721 780.18769836 163.32749939 C769.95467524 168.592514 759.78026916 173.96429102 749.64453125 179.4140625 C747.30476927 180.67202748 744.96496279 181.9299087 742.625 183.1875 C742.0358783 183.50416626 741.44675659 183.82083252 740.83978271 184.14709473 C731.58186932 189.11964311 722.27803222 193.99706053 712.9375 198.8125 C712.32073395 199.13047546 711.7039679 199.44845093 711.06851196 199.77606201 C709.24623786 200.71537361 707.4239113 201.65458333 705.6015625 202.59375 C695.11517845 207.99843056 684.6883802 213.51395148 674.26559448 219.03999329 C670.63559561 220.96453828 667.00535781 222.88863219 663.375 224.8125 C662.63809937 225.20305573 661.90119873 225.59361145 661.14196777 225.9960022 C649.63012611 232.09568948 638.08820413 238.13397634 626.5234375 244.1328125 C616.20928332 249.48312486 605.92324585 254.88434608 595.69140625 260.390625 C593.37769198 261.6355803 591.06392789 262.88044188 588.75 264.125 C587.87047165 264.59817154 587.87047165 264.59817154 586.97317505 265.0809021 C576.74972482 270.57589556 566.45126008 275.91563291 556.12469482 281.21377563 C548.14852706 285.30849866 540.21993327 289.47001366 532.375 293.8125 C521.72214622 299.70664028 510.88092391 305.22056284 500.03936768 310.75643921 C490.03565509 315.86708304 480.09617191 321.05623976 470.26831055 326.49951172 C462.03274101 331.03659478 453.6770884 335.33224241 445.3125 339.625 C444.59377716 339.99395386 443.87505432 340.36290771 443.134552 340.74304199 C440.32131336 342.18704251 437.50795305 343.63080554 434.69438171 345.07415771 C422.97248385 351.09001469 411.33791141 357.24062323 399.8125 363.625 C393.4134337 367.16849671 386.97603948 370.57594527 380.41577148 373.81005859 C366.31783264 380.77307556 352.39134174 388.09146211 338.625 395.6875 C328.174562 401.45278572 317.55808194 406.87915249 306.93154907 412.30984497 C297.77662897 416.99097201 288.68325211 421.73482907 279.73413086 426.80175781 C274.6940743 429.64706106 269.57079382 432.27013186 264.37939453 434.82714844 C255.43152865 439.24309203 246.61192859 443.90809511 237.77636719 448.54345703 C235.28150078 449.85231853 232.78544237 451.1588722 230.2890625 452.46484375 C223.40195664 456.07376822 216.53049016 459.70978625 209.68359375 463.39453125 C207.37247909 464.63817595 205.06132333 465.88174325 202.75 467.125 C202.16382904 467.44035706 201.57765808 467.75571411 200.97372437 468.08062744 C190.75074842 473.57535292 180.45273362 478.91476728 170.12670898 484.21276855 C162.10861382 488.32914419 154.13796862 492.51284644 146.25 496.875 C136.70221447 502.15177036 127.02002503 507.15068934 117.3125 512.125 C116.54449066 512.51859711 115.77648132 512.91219421 114.98519897 513.31771851 C111.98165023 514.85679356 108.97800978 516.39568944 105.97419739 517.93424988 C95.49988301 523.30206701 85.09481225 528.79409722 74.73046875 534.37109375 C72.40375108 535.6225921 70.07693937 536.87391406 67.75 538.125 C67.16340607 538.44056854 66.57681213 538.75613708 65.97244263 539.08126831 C55.71705796 544.59400345 45.38678193 549.95208369 35.025177 555.26202393 C25.826807 559.97803938 16.7054287 564.80958883 7.70898438 569.90332031 C2.20109424 573 2.20109424 573 0 573 C0 383.91 0 194.82 0 0 Z " fill="#00237D" transform="translate(0,1758)"/>
<path d="M0 0 C359.37 0 718.74 0 1089 0 C1089 189.09 1089 378.18 1089 573 C1084.84355506 571.33742202 1080.92313053 569.49293295 1076.9609375 567.4375 C1076.28726639 567.09024872 1075.61359528 566.74299744 1074.91950989 566.38522339 C1072.73676453 565.25920209 1070.55580941 564.12976557 1068.375 563 C1066.86113063 562.21752042 1065.34721439 561.43513153 1063.83325195 560.65283203 C1051.10786825 554.07285745 1038.40624241 547.45309026 1025.79296875 540.66015625 C1023.48713265 539.41898565 1021.18113763 538.17811026 1018.875 536.9375 C1018.29114532 536.62330109 1017.70729065 536.30910217 1017.10574341 535.98538208 C1006.46474232 530.26459566 995.73637798 524.7232477 984.98376465 519.21575928 C975.77988053 514.49878845 966.65349343 509.6757423 957.60400391 504.66723633 C948.23307715 499.51505517 938.70039984 494.68126716 929.17974854 489.81375122 C920.39058852 485.31783917 911.63680961 480.78442579 903 476 C893.53760502 470.76074511 883.93738274 465.80686944 874.3125 460.875 C873.5467868 460.48255096 872.78107361 460.09010193 871.99215698 459.6857605 C868.99840817 458.15155116 866.00455395 456.61754782 863.01051331 455.08390808 C850.40996727 448.62653789 837.89543872 442.03313794 825.54711914 435.10375977 C820.5679452 432.3320961 815.51771101 429.73910692 810.4140625 427.20703125 C802.77016976 423.41408766 795.22089277 419.45969172 787.69070435 415.4465332 C783.9941149 413.47677162 780.29393433 411.51377934 776.59375 409.55078125 C775.49130699 408.9657634 775.49130699 408.9657634 774.36659241 408.368927 C766.7678369 404.34021498 759.13811094 400.37232266 751.50268555 396.41357422 C744.68522782 392.87859614 737.88252901 389.31703584 731.09130859 385.73193359 C726.89742222 383.5196073 722.69721988 381.32029249 718.48828125 379.13671875 C709.18804446 374.30972372 699.92466085 369.43706125 690.75 364.375 C680.33798676 358.63715812 669.76633476 353.22634598 659.18249512 347.81512451 C650.3924162 343.31875582 641.6377075 338.78492318 633 334 C623.53760957 328.76074764 613.93742511 323.80677877 604.3125 318.875 C603.54412811 318.48122162 602.77575623 318.08744324 601.98410034 317.68173218 C598.980937 316.14285264 595.97768576 314.60414487 592.97425842 313.06578064 C582.49992229 307.69795612 572.09483224 302.20591353 561.73046875 296.62890625 C559.40375628 295.37739816 557.07695065 294.12606501 554.75 292.875 C554.16274139 292.55909912 553.57548279 292.24319824 552.97042847 291.91772461 C542.74856497 286.4235187 532.45164321 281.08467327 522.12670898 275.78723145 C514.10861382 271.67085581 506.13796862 267.48715356 498.25 263.125 C488.70221447 257.84822964 479.02002503 252.84931066 469.3125 247.875 C468.54449066 247.48140289 467.77648132 247.08780579 466.98519897 246.68228149 C463.98165023 245.14320644 460.97800978 243.60431056 457.97419739 242.06575012 C447.49988301 236.69793299 437.09481225 231.20590278 426.73046875 225.62890625 C424.4037828 224.37734848 422.07700866 223.1259574 419.75 221.875 C419.1637384 221.55976379 418.57747681 221.24452759 417.97344971 220.91973877 C408.34371489 215.74628417 398.65798061 210.68816518 388.9375 205.6875 C388.27555634 205.34693573 387.61361267 205.00637146 386.93161011 204.65548706 C384.350391 203.32766 381.7691 201.99997279 379.18769836 200.67250061 C368.95467524 195.407486 358.78026916 190.03570898 348.64453125 184.5859375 C346.30476927 183.32797252 343.96496279 182.0700913 341.625 180.8125 C341.0358783 180.49583374 340.44675659 180.17916748 339.83978271 179.85290527 C330.58186714 174.88035572 321.2779812 170.00304174 311.9375 165.1875 C311.01534195 164.71203232 311.01534195 164.71203232 310.07455444 164.22695923 C308.25808639 163.29053185 306.44155818 162.35422129 304.625 161.41796875 C293.93667077 155.90906603 283.29574334 150.31527671 272.70703125 144.6171875 C270.38814423 143.36956143 268.06919494 142.12205337 265.75 140.875 C265.16428223 140.56003571 264.57856445 140.24507141 263.97509766 139.92056274 C254.3448076 134.74684659 244.65852548 129.68844548 234.9375 124.6875 C234.27555634 124.34693573 233.61361267 124.00637146 232.93161011 123.65548706 C230.350391 122.32766 227.7691 120.99997279 225.18769836 119.67250061 C214.97797647 114.41947476 204.8256633 109.06190027 194.71484375 103.62109375 C192.39333059 102.37220673 190.07174155 101.12346225 187.75 99.875 C187.16310394 99.5592804 186.57620789 99.24356079 185.9715271 98.91827393 C175.74929279 93.42389483 165.45200668 88.08485975 155.12670898 82.78723145 C147.1086197 78.67085882 139.13785616 74.48734982 131.25 70.125 C121.00821499 64.46165256 110.59939265 59.14090666 100.18029785 53.81402588 C91.39095406 49.3180225 82.63698919 44.78452527 74 40 C64.5376206 34.76075374 54.93754057 29.80653784 45.3125 24.875 C44.16941376 24.28931747 44.16941376 24.28931747 43.00323486 23.69180298 C40.02235474 22.16475157 37.04143246 20.63778251 34.06036377 19.11109924 C28.31582718 16.16707594 22.58655832 13.19507842 16.875 10.1875 C16.17930908 9.82188965 15.48361816 9.4562793 14.7668457 9.07958984 C9.80453268 6.45796721 4.89776366 3.74006201 0 1 C0 0.67 0 0.34 0 0 Z " fill="#00237D" transform="translate(3911,1758)"/>
<path d="M0 0 C21.46131133 10.16588431 21.46131133 10.16588431 29.125 14.5 C38.56584159 19.74510504 48.1360956 24.70779012 57.75 29.625 C67.31260059 34.51778991 76.8162569 39.46606699 86.16870117 44.75317383 C91.19914716 47.58747638 96.30819232 50.2078566 101.48608398 52.76098633 C115.61644234 59.74120829 129.57650419 67.07372003 143.375 74.6875 C153.825438 80.45278572 164.44191806 85.87915249 175.06845093 91.30984497 C184.22485881 95.99173275 193.31917001 100.73715971 202.27026367 105.80395508 C207.26593295 108.62364557 212.34227678 111.22465741 217.48657227 113.76123047 C231.61678941 120.74136203 245.5765391 128.07401176 259.375 135.6875 C269.74463936 141.40640748 280.2753904 146.7950089 290.8180542 152.18515015 C300.45671191 157.11559332 310.02493014 162.13587679 319.49609375 167.3828125 C328.07149252 172.10250566 336.785468 176.5446428 345.5 181 C355.06343737 185.8893652 364.60331101 190.7946333 374 196 C383.46239043 201.23925236 393.06257489 206.19322123 402.6875 211.125 C403.84005783 211.71566757 403.84005783 211.71566757 405.01589966 212.31826782 C408.019063 213.85714736 411.02231424 215.39585513 414.02574158 216.93421936 C424.50007771 222.30204388 434.90516776 227.79408647 445.26953125 233.37109375 C447.5962172 234.62265152 449.92299134 235.8740426 452.25 237.125 C452.8362616 237.44023621 453.42252319 237.75547241 454.02655029 238.08026123 C463.65628511 243.25371583 473.34201939 248.31183482 483.0625 253.3125 C483.72444366 253.65306427 484.38638733 253.99362854 485.06838989 254.34451294 C487.649609 255.67234 490.2309 257.00002721 492.81230164 258.32749939 C503.04532476 263.592514 513.21973084 268.96429102 523.35546875 274.4140625 C525.69523073 275.67202748 528.03503721 276.9299087 530.375 278.1875 C530.9641217 278.50416626 531.55324341 278.82083252 532.16021729 279.14709473 C541.41813286 284.11964428 550.7220188 288.99695826 560.0625 293.8125 C560.67727203 294.12947845 561.29204407 294.44645691 561.92544556 294.77304077 C563.74191361 295.70946815 565.55844182 296.64577871 567.375 297.58203125 C578.06332923 303.09093397 588.70425666 308.68472329 599.29296875 314.3828125 C601.61185577 315.63043857 603.93080506 316.87794663 606.25 318.125 C606.83571777 318.43996429 607.42143555 318.75492859 608.02490234 319.07943726 C617.6551924 324.25315341 627.34147452 329.31155452 637.0625 334.3125 C637.72444366 334.65306427 638.38638733 334.99362854 639.06838989 335.34451294 C641.649609 336.67234 644.2309 338.00002721 646.81230164 339.32749939 C657.02202353 344.58052524 667.1743367 349.93809973 677.28515625 355.37890625 C679.60666941 356.62779327 681.92825845 357.87653775 684.25 359.125 C684.83689606 359.4407196 685.42379211 359.75643921 686.0284729 360.08172607 C696.2513669 365.57645975 706.54928513 370.91591263 716.87530518 376.21377563 C724.85147294 380.30849866 732.78006673 384.47001366 740.625 388.8125 C751.2785078 394.70700214 762.12038562 400.22130427 772.96264648 405.75744629 C782.92159385 410.84511545 792.81645609 416.00989508 802.59765625 421.43359375 C811.1377236 426.13907987 819.81911009 430.56192725 828.5 435 C838.91273266 440.32354482 849.26530728 445.71505286 859.49609375 451.3828125 C868.07149252 456.10250566 876.785468 460.5446428 885.5 465 C895.06343737 469.8893652 904.60331101 474.7946333 914 480 C923.46239498 485.23925489 933.06261726 490.19313056 942.6875 495.125 C943.4532132 495.51744904 944.21892639 495.90989807 945.00784302 496.3142395 C948.00159183 497.84844884 950.99544605 499.38245218 953.98948669 500.91609192 C965.82023289 506.97896472 977.55825033 513.1840498 989.1875 519.625 C995.62987886 523.19301094 1002.11185145 526.62270458 1008.71826172 529.87597656 C1017.63373909 534.27513351 1026.42037594 538.9250429 1035.22363281 543.54345703 C1037.71849922 544.85231853 1040.21455763 546.1588722 1042.7109375 547.46484375 C1047.48078904 549.96370734 1052.24209313 552.47847514 1057 555 C1058.14919922 555.60875977 1059.29839844 556.21751953 1060.48242188 556.84472656 C1063.66656785 558.53274733 1066.84819827 560.22544359 1070.0284729 561.92074585 C1071.29152118 562.59344954 1072.55516448 563.26503735 1073.81942749 563.93545532 C1075.59880737 564.87947691 1077.37562286 565.8283272 1079.15234375 566.77734375 C1080.18351318 567.32640381 1081.21468262 567.87546387 1082.27709961 568.44116211 C1085 570 1085 570 1089 573 C729.63 573 370.26 573 0 573 C0 383.91 0 194.82 0 0 Z " fill="#00237D" transform="translate(0,307)"/>
<path d="M0 0 C3.27436843 0.81859211 5.57504493 1.66448947 8.53515625 3.15234375 C9.41679443 3.59376709 10.29843262 4.03519043 11.20678711 4.48999023 C12.14917236 4.96766846 13.09155762 5.44534668 14.0625 5.9375 C15.04549072 6.43258057 16.02848145 6.92766113 17.04125977 7.43774414 C25.5804455 11.75379425 34.04798761 16.19933325 42.50146484 20.68017578 C47.07506517 23.09613077 51.66305322 25.48451062 56.25 27.875 C57.21123779 28.37620361 58.17247559 28.87740723 59.1628418 29.39379883 C62.10839823 30.92951209 65.05416582 32.46481957 68 34 C79.60995082 40.05036407 91.21679666 46.10590151 102.79785156 52.21142578 C110.00951154 56.01093862 117.23748202 59.77892993 124.46630859 63.5456543 C130.36104984 66.61867469 136.24662787 69.708307 142.125 72.8125 C150.2260686 77.08806399 158.36105465 81.29717884 166.5 85.5 C175.38772861 90.08948085 184.26466615 94.69750941 193.11035156 99.36767578 C202.07648029 104.10077598 211.06966181 108.78192169 220.06054688 113.46777344 C225.82974113 116.47503782 231.59734289 119.48535513 237.36523438 122.49511719 C242.20649713 125.02120834 247.04816023 127.54652626 251.890625 130.0703125 C260.68596864 134.65518153 269.47772098 139.24613422 278.25 143.875 C285.98092904 147.95363964 293.73783949 151.98115539 301.5 156 C310.01827585 160.41032197 318.5251488 164.84033468 327.00878906 169.31689453 C333.08046918 172.51972536 339.16318001 175.70104159 345.25 178.875 C346.21164062 179.37644531 347.17328125 179.87789062 348.1640625 180.39453125 C351.10923845 181.92994964 354.05458591 183.46503849 357 185 C378.78690997 196.35394449 378.78690997 196.35394449 389.25 201.875 C396.98092904 205.95363964 404.73783949 209.98115539 412.5 214 C421.02118706 218.41182924 429.53066564 222.84391275 438.01757812 227.32128906 C452.55934086 234.99091628 467.15165016 242.56378767 481.75 250.125 C490.13566537 254.46852273 498.50902851 258.83351287 506.86035156 263.24267578 C513.39298394 266.68866041 519.94519515 270.09641093 526.5 273.5 C534.59919376 277.70570241 542.68656272 281.93235576 550.7578125 286.19140625 C558.40396126 290.22183382 566.0757077 294.20268173 573.74658203 298.18579102 C579.96631006 301.4171823 586.17680035 304.66502396 592.375 307.9375 C600.06380266 311.99622336 607.77910803 316.00269289 615.5 320 C624.01828434 324.4103054 632.52514893 328.84033475 641.00878906 333.31689453 C647.08046918 336.51972536 653.16318001 339.70104159 659.25 342.875 C660.21164062 343.37644531 661.17328125 343.87789063 662.1640625 344.39453125 C665.10923845 345.92994964 668.05458591 347.46503849 671 349 C692.78690997 360.35394449 692.78690997 360.35394449 703.25 365.875 C710.98092904 369.95363964 718.73783949 373.98115539 726.5 378 C735.01827585 382.41032197 743.5251488 386.84033468 752.00878906 391.31689453 C761.00979955 396.06495657 770.03611027 400.76443537 779.06054688 405.46777344 C784.82974113 408.47503782 790.59734289 411.48535513 796.36523438 414.49511719 C801.20649713 417.02120834 806.04816023 419.54652626 810.890625 422.0703125 C819.68596864 426.65518153 828.47772098 431.24613422 837.25 435.875 C844.98092904 439.95363964 852.73783949 443.98115539 860.5 448 C869.01827585 452.41032197 877.5251488 456.84033468 886.00878906 461.31689453 C895.00979955 466.06495657 904.03611027 470.76443537 913.06054688 475.46777344 C918.82974113 478.47503782 924.59734289 481.48535513 930.36523438 484.49511719 C935.20649713 487.02120834 940.04816023 489.54652626 944.890625 492.0703125 C953.64467471 496.63368666 962.39494055 501.20337949 971.125 505.8125 C979.22610937 510.08798787 987.36105391 514.29717846 995.5 518.5 C1004.38772861 523.08948085 1013.26466615 527.69750941 1022.11035156 532.36767578 C1031.07648029 537.10077598 1040.06966181 541.78192169 1049.06054688 546.46777344 C1054.82974113 549.47503782 1060.59734289 552.48535513 1066.36523438 555.49511719 C1071.20649713 558.02120834 1076.04816023 560.54652626 1080.890625 563.0703125 C1090.48996377 568.07425709 1100.08196078 573.0912566 1109.65722656 578.14111328 C1117.33747041 582.18681262 1125.04213875 586.18523811 1132.74609375 590.18554688 C1138.96599087 593.41700747 1145.17663943 596.664939 1151.375 599.9375 C1159.06380266 603.99622336 1166.77910803 608.00269289 1174.5 612 C1183.01828434 616.4103054 1191.52514893 620.84033475 1200.00878906 625.31689453 C1209.00979955 630.06495657 1218.03611027 634.76443537 1227.06054688 639.46777344 C1232.82974113 642.47503782 1238.59734289 645.48535513 1244.36523438 648.49511719 C1249.20649713 651.02120834 1254.04816023 653.54652626 1258.890625 656.0703125 C1267.68596864 660.65518153 1276.47772098 665.24613422 1285.25 669.875 C1292.98092904 673.95363964 1300.73783949 677.98115539 1308.5 682 C1317.01827585 686.41032197 1325.5251488 690.84033468 1334.00878906 695.31689453 C1340.08046918 698.51972536 1346.16318001 701.70104159 1352.25 704.875 C1353.21164062 705.37644531 1354.17328125 705.87789062 1355.1640625 706.39453125 C1358.10923845 707.92994964 1361.05458591 709.46503849 1364 711 C1367.91689244 713.04123391 1371.83360213 715.08281733 1375.75 717.125 C1376.71309082 717.62717041 1377.67618164 718.12934082 1378.66845703 718.64672852 C1384.4952881 721.68700821 1390.31299552 724.74399523 1396.125 727.8125 C1404.22610937 732.08798787 1412.36105391 736.29717846 1420.5 740.5 C1429.38772861 745.08948085 1438.26466615 749.69750941 1447.11035156 754.36767578 C1456.07648029 759.10077598 1465.06966181 763.78192169 1474.06054688 768.46777344 C1479.82974113 771.47503782 1485.59734289 774.48535513 1491.36523438 777.49511719 C1496.20649713 780.02120834 1501.04816023 782.54652626 1505.890625 785.0703125 C1515.48996377 790.07425709 1525.08196078 795.0912566 1534.65722656 800.14111328 C1542.33747041 804.18681262 1550.04213875 808.18523811 1557.74609375 812.18554688 C1563.96599087 815.41700747 1570.17663943 818.664939 1576.375 821.9375 C1584.06380253 825.99622329 1591.77910038 830.00270788 1599.5 834 C1607.96981638 838.38502402 1616.42893823 842.78827939 1624.86157227 847.24438477 C1629.23785074 849.55438732 1633.62380882 851.84437172 1638.01953125 854.1171875 C1651.11987659 860.89250199 1664.12188996 867.81054111 1677 875 C1677 875.33 1677 875.66 1677 876 C1626.51924845 876.34403417 1576.03861633 876.60799895 1525.55692111 876.76597994 C1519.58449497 876.78473845 1513.61207114 876.80415348 1507.63964844 876.82397461 C1505.85629661 876.82987659 1505.85629661 876.82987659 1504.03691748 876.83589781 C1484.83695591 876.90100216 1465.63767445 877.01917748 1446.43811509 877.15729194 C1426.70800584 877.29802935 1406.97825046 877.38097901 1387.24765992 877.41132742 C1375.09209637 877.43181446 1362.93845569 877.49629037 1350.78348473 877.618747 C1342.42548809 877.69861328 1334.06847174 877.7218738 1325.71012208 877.70252066 C1320.90140605 877.69299935 1316.09602603 877.70659888 1311.28791809 877.78808212 C1287.88601494 878.1652551 1271.42266574 875.90539618 1251.64954042 862.73786557 C1248.13547037 860.43294458 1244.48648262 858.47660626 1240.75 856.5625 C1239.62078125 855.96050781 1238.4915625 855.35851562 1237.328125 854.73828125 C1233.088629 852.5239905 1228.80975209 850.39502727 1224.5246582 848.27075195 C1215.61103269 843.83674026 1206.80994345 839.18518628 1197.9921875 834.56445312 C1195.06044566 833.03160377 1192.12477213 831.50659644 1189.1875 829.984375 C1180.10945256 825.27532585 1171.07465332 820.51141734 1162.125 815.5625 C1149.61381393 808.66018434 1136.86370481 802.21838672 1124.13134766 795.73657227 C1109.41574881 788.24248956 1094.78262637 780.60499016 1080.25439453 772.75317383 C1067.15877744 765.67818956 1053.9511899 758.84202022 1040.69586182 752.07180786 C1031.73363319 747.49190125 1022.80300145 742.88146665 1014 738 C1001.81901817 731.24545576 989.39008633 724.97165124 976.99111938 718.63009644 C976.21158905 718.23138336 975.43205872 717.83267029 974.62890625 717.421875 C973.86170258 717.02952667 973.0944989 716.63717834 972.30404663 716.23294067 C966.0536036 713.0337527 959.82959986 709.7871598 953.62548828 706.49902344 C949.45757723 704.29084594 945.27936222 702.10446936 941.08984375 699.9375 C931.2526753 694.84899553 921.44439645 689.73120522 911.75 684.375 C899.30981355 677.51355126 886.63989923 671.0993241 873.99276733 664.63092041 C873.21269318 664.23193542 872.43261902 663.83295044 871.62890625 663.421875 C870.4780101 662.83330719 870.4780101 662.83330719 869.30386353 662.23284912 C863.05348371 659.03368745 856.82953957 655.78712785 850.62548828 652.49902344 C846.45757723 650.29084594 842.27936222 648.10446936 838.08984375 645.9375 C828.2526753 640.84899553 818.44439645 635.73120522 808.75 630.375 C796.30981355 623.51355126 783.63989923 617.0993241 770.99276733 610.63092041 C770.21269318 610.23193542 769.43261902 609.83295044 768.62890625 609.421875 C767.4780101 608.83330719 767.4780101 608.83330719 766.30386353 608.23284912 C760.05581327 605.0348798 753.83490051 601.78823146 747.63208008 598.50341797 C741.2718308 595.13583876 734.88728207 591.81598723 728.5 588.5 C715.93250069 581.97044859 703.3667233 575.43978441 690.90234375 568.71484375 C676.58399173 560.99508231 662.18239498 553.47086319 647.69586182 546.07180786 C638.73363319 541.49190125 629.80300145 536.88146665 621 532 C608.81901817 525.24545576 596.39008633 518.97165124 583.99111938 512.63009644 C583.21158905 512.23138336 582.43205872 511.83267029 581.62890625 511.421875 C580.86170258 511.02952667 580.0944989 510.63717834 579.30404663 510.23294067 C573.0536036 507.0337527 566.82959986 503.7871598 560.62548828 500.49902344 C556.45757723 498.29084594 552.27936222 496.10446936 548.08984375 493.9375 C538.33515838 488.89160983 528.60896823 483.81879735 519 478.5 C507.39404736 472.08795689 495.56401807 466.11814518 483.75109863 460.09942627 C473.19998148 454.7211873 462.69971501 449.29195695 452.34643555 443.53955078 C441.04017791 437.30002066 429.49270407 431.51274028 417.99688721 425.63298035 C417.21803162 425.23460464 416.43917603 424.83622894 415.63671875 424.42578125 C414.86994812 424.03364944 414.10317749 423.64151764 413.31317139 423.23750305 C405.59342003 419.28628712 397.92043465 415.24968184 390.25683594 411.19091797 C385.76297469 408.81953597 381.25564179 406.4738968 376.75 404.125 C375.78537842 403.62170166 374.82075684 403.11840332 373.8269043 402.59985352 C368.95401708 400.05813023 364.07866623 397.52129501 359.19921875 394.9921875 C350.03565862 390.23642562 340.91364533 385.42688722 331.875 380.4375 C319.39161732 373.55823533 306.68153854 367.12060457 293.99304199 360.63105774 C293.2128772 360.23202744 292.4327124 359.83299713 291.62890625 359.421875 C290.86163208 359.02949142 290.09435791 358.63710785 289.30383301 358.23283386 C283.05346373 355.03367657 276.82952952 351.78712252 270.62548828 348.49902344 C266.45757723 346.29084594 262.27936222 344.10446936 258.08984375 341.9375 C248.33515838 336.89160983 238.60896823 331.81879735 229 326.5 C217.39404736 320.08795689 205.56401807 314.11814518 193.75109863 308.09942627 C183.19998148 302.7211873 172.69971501 297.29195695 162.34643555 291.53955078 C151.04017791 285.30002066 139.49270407 279.51274028 127.99688721 273.63298035 C127.21803162 273.23460464 126.43917603 272.83622894 125.63671875 272.42578125 C124.86994812 272.03364944 124.10317749 271.64151764 123.31317139 271.23750305 C115.59924109 267.28926653 107.93214486 263.25557325 100.27441406 259.19970703 C95.69197232 256.78256247 91.09475902 254.39362058 86.5 252 C78.72232618 247.94674653 70.95353474 243.87733926 63.1965332 239.78466797 C58.96476289 237.55387809 54.7267846 235.33580499 50.48046875 233.1328125 C37.22662829 226.25403782 24.08821069 219.18844802 11 212 C7.37 210.02 3.74 208.04 0 206 C0 138.02 0 70.04 0 0 Z " fill="#CE1125" transform="translate(0,1)"/>
<path d="M0 0 C50.53188565 -0.2980587 101.06368188 -0.52688011 151.59627488 -0.66384928 C157.57256685 -0.68010696 163.54885709 -0.6969333 169.52514648 -0.71411133 C171.30967871 -0.71922638 171.30967871 -0.71922638 173.13026208 -0.72444477 C192.35155945 -0.78089295 211.57234737 -0.88332567 230.7933433 -1.00298635 C250.54039892 -1.12488963 270.28718915 -1.19683414 290.03460556 -1.22315043 C302.20378662 -1.24091977 314.37152738 -1.29687844 326.54026467 -1.40291407 C334.90379435 -1.47204521 343.26658794 -1.49230933 351.63038205 -1.47551791 C356.44447289 -1.46725361 361.25606159 -1.47920998 366.06969833 -1.54967117 C387.77794961 -1.85174189 403.95378234 -0.98672582 422.52154648 11.3761822 C426.40663399 13.92158973 430.48332914 16.09785105 434.5625 18.3125 C436.01407047 19.12442838 437.46474132 19.93796958 438.9140625 20.75390625 C443.32272106 23.20212757 447.8136995 25.45799747 452.33691406 27.68530273 C467.65665264 35.24677816 482.76040202 43.26568537 497.86523438 51.24609375 C502.21713536 53.54324114 506.57835537 55.82114392 510.94921875 58.08203125 C520.7318198 63.14325289 530.48612958 68.23194793 540.125 73.5625 C551.31341641 79.74030904 562.70434454 85.51512917 574.08883667 91.32003784 C584.72855779 96.74747804 595.29752273 102.25597682 605.74731445 108.04248047 C612.30622439 111.66177029 618.96696166 115.03725304 625.6809082 118.35839844 C638.35269922 124.63213423 650.79236744 131.3239234 663.1875 138.125 C669.9134439 141.81291771 676.66507158 145.39975929 683.54516602 148.79052734 C698.32223987 156.08789324 712.95020291 163.71733517 727.375 171.6875 C739.77019058 178.52956029 752.39754076 184.91976569 765.00119019 191.36605835 C765.78068024 191.76475128 766.56017029 192.16344421 767.36328125 192.57421875 C768.13012238 192.9663858 768.8969635 193.35855286 769.68704224 193.76260376 C776.70480156 197.35452562 783.68602602 201.01257805 790.65234375 204.703125 C794.77586108 206.88734079 798.91582742 209.03922673 803.05664062 211.19042969 C812.53628493 216.11663129 821.96934052 221.12148406 831.375 226.1875 C843.97799833 232.97021095 856.68495816 239.53970977 869.41793823 246.07443237 C870.43115646 246.59446335 870.43115646 246.59446335 871.46484375 247.125 C872.45908859 247.63524216 872.45908859 247.63524216 873.47341919 248.15579224 C879.44549091 251.22331881 885.39193134 254.33792277 891.32666016 257.47705078 C895.30066388 259.57905454 899.28015731 261.66946789 903.26953125 263.7421875 C913.63754417 269.1290267 923.96437398 274.58231226 934.25 280.125 C947.35965927 287.18263314 960.58941903 293.99592523 973.83956909 300.7852478 C974.91865036 301.3382103 974.91865036 301.3382103 976.01953125 301.90234375 C976.72498077 302.263815 977.4304303 302.62528625 978.15725708 302.99771118 C984.98496959 306.49931228 991.7773654 310.06559731 998.55859375 313.65625 C1001.85534325 315.40092671 1005.16171416 317.12615943 1008.47265625 318.84375 C1017.66267416 323.6125948 1026.81492622 328.42584403 1035.875 333.4375 C1048.3860755 340.33999921 1061.13630571 346.78161864 1073.86865234 353.26342773 C1088.65178879 360.79190799 1103.34995374 368.46990334 1117.94946289 376.34887695 C1131.68797114 383.76262258 1145.53506603 390.94970112 1159.42370605 398.07731628 C1160.09985962 398.42434097 1160.77601318 398.77136566 1161.47265625 399.12890625 C1162.13591919 399.46928421 1162.79918213 399.80966217 1163.48254395 400.16035461 C1169.40062379 403.20016249 1175.29270431 406.28763258 1181.17285156 409.40014648 C1185.41372073 411.64344294 1189.66442199 413.8661378 1193.92578125 416.0703125 C1203.71638298 421.13512139 1213.47833968 426.22795852 1223.125 431.5625 C1235.13376369 438.18975248 1247.36130056 444.39219677 1259.58056641 450.61938477 C1270.08105432 455.97276113 1280.5310174 461.41394766 1290.95230103 466.91986084 C1295.4591697 469.29718554 1299.9802593 471.64727557 1304.5 474 C1329.76856818 487.1748953 1329.76856818 487.1748953 1341.17578125 493.32421875 C1356.64087067 501.65764498 1372.20455216 509.77397325 1387.83901978 517.78497314 C1388.55858856 518.15370544 1389.27815735 518.52243774 1390.01953125 518.90234375 C1391.07773575 519.44456573 1391.07773575 519.44456573 1392.15731812 519.9977417 C1398.98242025 523.49800667 1405.77227606 527.06281362 1412.55078125 530.65234375 C1415.87325133 532.41067622 1419.20583665 534.14856255 1422.54296875 535.87890625 C1431.90093217 540.73303284 1441.2205739 545.63226031 1450.4375 550.75 C1456.70738737 554.2281234 1463.01391806 557.57036595 1469.44458008 560.74023438 C1484.17071733 568.01382911 1498.7552726 575.60846244 1513.125 583.5625 C1525.55006586 590.42901525 1538.21992933 596.82417559 1550.86962891 603.26391602 C1565.65243162 610.79224927 1580.3502741 618.47007623 1594.94946289 626.34887695 C1606.58988129 632.6304251 1618.29617075 638.77034905 1630.0625 644.8125 C1630.76629791 645.17399139 1631.47009583 645.53548279 1632.19522095 645.90792847 C1634.93792328 647.3165361 1637.68071907 648.72496159 1640.42362976 650.13316345 C1645.89684541 652.94420563 1651.36203274 655.7700474 1656.8125 658.625 C1657.49127197 658.97796143 1658.17004395 659.33092285 1658.86938477 659.69458008 C1660.14352923 660.36454011 1661.40585574 661.05766579 1662.65272141 661.77712154 C1665.05245941 663.09615889 1665.05245941 663.09615889 1667.98413467 664.06051731 C1671.7230121 665.6422202 1674.15508701 667.08015812 1677 670 C1679.30071609 676.14984487 1678.51217876 683.2599471 1678.36230469 689.70483398 C1678.35891829 691.73539529 1678.36082277 693.76597128 1678.36761475 695.79652405 C1678.37105585 701.301357 1678.30055053 706.80304769 1678.21672726 712.3071506 C1678.14167161 718.06186881 1678.1346596 723.81666046 1678.12042236 729.5717926 C1678.08313559 740.46620537 1677.98467926 751.35917181 1677.86422849 762.25294787 C1677.73006336 774.65653887 1677.66411212 787.06019926 1677.60388327 799.46433532 C1677.47847723 824.97702519 1677.26743012 850.48843154 1677 876 C1672.42138456 874.5314177 1668.3232242 872.6979577 1664.125 870.375 C1659.08464448 867.63734184 1654.01891448 864.97663247 1648.875 862.4375 C1631.62838896 853.88386017 1614.56544791 844.95555454 1597.625 835.8125 C1584.55178096 828.75978023 1571.34733231 821.97391699 1558.11376953 815.2277832 C1548.50798569 810.32874914 1538.9440191 805.35781602 1529.40844727 800.32348633 C1523.45624821 797.1821747 1517.47899846 794.08997125 1511.5 791 C1502.9813915 786.59032525 1494.47484655 782.15966287 1485.99121094 777.68310547 C1476.99020045 772.93504343 1467.96388973 768.23556463 1458.93945312 763.53222656 C1453.17025887 760.52496218 1447.40265711 757.51464487 1441.63476562 754.50488281 C1436.79350287 751.97879166 1431.95183977 749.45347374 1427.109375 746.9296875 C1417.51003623 741.92574291 1407.91803922 736.9087434 1398.34277344 731.85888672 C1390.66252959 727.81318738 1382.95786125 723.81476189 1375.25390625 719.81445312 C1369.03400913 716.58299253 1362.82336057 713.335061 1356.625 710.0625 C1348.93619747 706.00377671 1341.22089962 701.99729212 1333.5 698 C1325.03104934 693.61542419 1316.57399991 689.21039855 1308.140625 684.7578125 C1301.60763891 681.31171847 1295.05512796 677.90375685 1288.5 674.5 C1280.40080624 670.29429759 1272.31343728 666.06764424 1264.2421875 661.80859375 C1256.59603874 657.77816618 1248.9242923 653.79731827 1241.25341797 649.81420898 C1235.03368994 646.5828177 1228.82319965 643.33497604 1222.625 640.0625 C1214.93619734 636.00377664 1207.22089197 631.99730711 1199.5 628 C1190.97880445 623.58818733 1182.46933423 619.15608718 1173.98242188 614.67871094 C1167.99584127 611.52126418 1162.00035216 608.38119594 1156 605.25 C1155.04649658 604.75226074 1154.09299316 604.25452148 1153.1105957 603.74169922 C1147.84938602 600.99812094 1142.58238882 598.26618745 1137.30859375 595.546875 C1125.79570266 589.60619365 1114.34446804 583.58732084 1103.00024414 577.33032227 C1095.80119229 573.38266761 1088.48465265 569.7098352 1081.12133789 566.08007812 C1074.86475988 562.97891867 1068.72543187 559.70977811 1062.625 556.3125 C1056.4282525 552.86315843 1050.20634331 549.53632372 1043.84350586 546.4050293 C1036.41130816 542.73656692 1029.05098346 538.92885796 1021.6875 535.125 C1021.00585785 534.77293488 1020.3242157 534.42086975 1019.62191772 534.05813599 C1010.25265686 529.21690908 1000.90286351 524.34057261 991.578125 519.4140625 C986.31158387 516.63282941 981.03110972 513.87844431 975.75 511.125 C974.78513672 510.62194336 973.82027344 510.11888672 972.82617188 509.60058594 C970.86397774 508.57771228 968.90173792 507.55492628 966.93945312 506.53222656 C961.17025887 503.52496218 955.40265711 500.51464487 949.63476562 497.50488281 C944.79350287 494.97879166 939.95183977 492.45347374 935.109375 489.9296875 C926.31403136 485.34481847 917.52227902 480.75386578 908.75 476.125 C901.01907096 472.04636036 893.26216051 468.01884461 885.5 464 C876.98172415 459.58967803 868.4748512 455.15966532 859.99121094 450.68310547 C850.99020045 445.93504343 841.96388973 441.23556463 832.93945312 436.53222656 C827.17025887 433.52496218 821.40265711 430.51464487 815.63476562 427.50488281 C810.79350287 424.97879166 805.95183977 422.45347374 801.109375 419.9296875 C792.31403136 415.34481847 783.52227902 410.75386578 774.75 406.125 C767.01907096 402.04636036 759.26216051 398.01884461 751.5 394 C742.98172415 389.58967803 734.4748512 385.15966532 725.99121094 380.68310547 C719.91953082 377.48027464 713.83681999 374.29895841 707.75 371.125 C706.78835938 370.62355469 705.82671875 370.12210938 704.8359375 369.60546875 C701.89076155 368.07005036 698.94541409 366.53496151 696 365 C684.47625867 358.99456281 672.95575687 352.98394888 661.46362305 346.91821289 C655.81753576 343.9434807 650.15211015 341.00737806 644.48193359 338.07885742 C634.14888581 332.74117352 623.86082947 327.33479136 613.625 321.8125 C600.86748918 314.93550395 587.98843912 308.30643962 575.08642578 301.70532227 C573.52504799 300.90644621 571.96368694 300.10753743 570.40234375 299.30859375 C569.65305603 298.9252034 568.90376831 298.54181305 568.1317749 298.14680481 C562.03438315 295.0240327 555.96482684 291.8513165 549.91186523 288.64331055 C542.80022142 284.87928135 535.64966456 281.19107961 528.5 277.5 C519.66153477 272.93640146 510.83441795 268.35334093 502.0390625 263.70703125 C495.54056056 260.27663737 489.02162726 256.88619187 482.5 253.5 C474.40079668 249.29431613 466.31343716 245.06764418 458.2421875 240.80859375 C450.59603874 236.77816618 442.9242923 232.79731827 435.25341797 228.81420898 C429.03368994 225.5828177 422.82319965 222.33497604 416.625 219.0625 C408.93619747 215.00377671 401.22089962 210.99729212 393.5 207 C385.03104934 202.61542419 376.57399991 198.21039855 368.140625 193.7578125 C361.60763891 190.31171847 355.05512796 186.90375685 348.5 183.5 C340.40080624 179.29429759 332.31343728 175.06764424 324.2421875 170.80859375 C316.59603874 166.77816618 308.9242923 162.79731827 301.25341797 158.81420898 C295.03368994 155.5828177 288.82319965 152.33497604 282.625 149.0625 C274.93619734 145.00377664 267.22089197 140.99730711 259.5 137 C250.98171566 132.5896946 242.47485107 128.15966525 233.99121094 123.68310547 C227.91953082 120.48027464 221.83681999 117.29895841 215.75 114.125 C214.78835937 113.62355469 213.82671875 113.12210938 212.8359375 112.60546875 C209.89076155 111.07005036 206.94541409 109.53496151 204 108 C192.48062073 101.99683603 180.9638292 95.98969599 169.47680664 89.92480469 C164.85864602 87.49111039 160.22889943 85.08114617 155.58984375 82.6875 C144.77098023 77.10456764 133.97942049 71.49415168 123.3125 65.625 C116.75544585 62.01856198 110.17333695 58.51763332 103.45947266 55.21289062 C88.25280165 47.71037493 73.26723426 39.74125646 58.27319336 31.82421875 C51.44890947 28.2253644 44.60042336 24.67379436 37.75 21.125 C36.61385254 20.53557617 35.47770508 19.94615234 34.30712891 19.33886719 C28.60911128 16.38350077 22.90672775 13.43721046 17.1953125 10.5078125 C15.08851649 9.42192384 12.98174453 8.33598853 10.875 7.25 C9.89112305 6.74871582 8.90724609 6.24743164 7.89355469 5.73095703 C6.99797852 5.26802246 6.10240234 4.80508789 5.1796875 4.328125 C4.39319824 3.9249707 3.60670898 3.52181641 2.79638672 3.10644531 C1 2 1 2 0 0 Z " fill="#CE1125" transform="translate(3323,1757)"/>
<path d="M0 0 C124.08 0 248.16 0 376 0 C372.41669656 2.68747758 371.19150947 3.54686384 367 4 C366.67 3.67 366.34 3.34 366 3 C364.05583009 2.89723637 362.10787288 2.86599081 360.16099453 2.8613348 C358.24562379 2.85312313 358.24562379 2.85312313 356.29155868 2.84474558 C354.85602922 2.84366917 353.42049968 2.84268451 351.98497009 2.84178162 C350.47442876 2.83722007 348.96388869 2.83222066 347.45335013 2.82681805 C343.28263624 2.81318103 339.11193054 2.80580258 334.94120014 2.79939139 C330.45105006 2.79141176 325.96091717 2.77770566 321.47077942 2.76467896 C313.68471246 2.74288148 305.89864378 2.72474901 298.11256218 2.70907402 C286.85505959 2.68640509 275.59757601 2.6582582 264.34008951 2.62875474 C246.07756479 2.58104223 227.81503232 2.537788 209.55249023 2.49731445 C191.80736691 2.45797812 174.06225048 2.41655639 156.31713867 2.37231445 C154.67767218 2.36822804 154.67767218 2.36822804 153.00508516 2.36405908 C147.52218563 2.35037991 142.03928621 2.33665958 136.55638683 2.32291877 C91.03760559 2.20889653 45.51880944 2.10209993 0 2 C0 1.34 0 0.68 0 0 Z " fill="#D12233" transform="translate(4622,1)"/>
<path d="M0 0 C1.32 0.33 2.64 0.66 4 1 C3.67 1.33 3.34 1.66 3 2 C2.67 10.91 2.34 19.82 2 29 C114.86 29 227.72 29 344 29 C344 29.66 344 30.32 344 31 C230.48 31 116.96 31 0 31 C0 20.77 0 10.54 0 0 Z " fill="#D53847" transform="translate(3002,847)"/>
<path d="M0 0 C132 0 264 0 400 0 C400 0.33 400 0.66 400 1 C269.98 1 139.96 1 6 1 C6.33 1.99 6.66 2.98 7 4 C4.97954558 3.39816251 2.97888961 2.72693904 1 2 C0.67 1.34 0.34 0.68 0 0 Z " fill="#D32737" transform="translate(3323,1757)"/>
<path d="M0 0 C0.99 0.33 1.98 0.66 3 1 C4.47965926 1.14573058 5.96403843 1.24663268 7.44921875 1.31640625 C8.29677734 1.35830078 9.14433594 1.40019531 10.01757812 1.44335938 C10.89865234 1.48267578 11.77972656 1.52199219 12.6875 1.5625 C14.02651367 1.62727539 14.02651367 1.62727539 15.39257812 1.69335938 C17.59490108 1.79935353 19.79733473 1.90142051 22 2 C22 2.33 22 2.66 22 3 C13.75 3 5.5 3 -3 3 C-2.01 2.01 -1.02 1.02 0 0 Z " fill="#D22637" transform="translate(5,2630)"/>
<path d="M0 0 C0 0.66 0 1.32 0 2 C-2.30276574 4.21747812 -3.52480092 4.96760006 -6.75 5.1875 C-7.86375 5.0946875 -7.86375 5.0946875 -9 5 C-2.40909091 0 -2.40909091 0 0 0 Z " fill="#D12033" transform="translate(824,2201)"/>
</svg>
